<?xml version="1.0" encoding="UTF-8" standalone="no"?><!DOCTYPE svg PUBLIC "-//W3C//DTD SVG 1.1//EN" "http://www.w3.org/Graphics/SVG/1.1/DTD/svg11.dtd"><svg width="100%" height="100%" viewBox="0 0 393 60" version="1.1" xmlns="http://www.w3.org/2000/svg" xmlns:xlink="http://www.w3.org/1999/xlink" xml:space="preserve" xmlns:serif="http://www.serif.com/" style="fill-rule:evenodd;clip-rule:evenodd;stroke-linejoin:round;stroke-miterlimit:2;"><path d="M44.467,39.578c-0.134,-0.267 -0.3,-0.334 -0.5,-0.2l-30.8,13.8l-0,-17.2l7.2,-0c5.666,-0 10.033,-1.484 13.1,-4.45c3.066,-2.967 4.6,-7.184 4.6,-12.65c-0,-4.6 -1.3,-8.15 -3.9,-10.65c-2.6,-2.5 -6.3,-3.75 -11.1,-3.75l-11.9,0.1l-0,49.5l-10.9,4.9c-0.267,0.133 -0.334,0.333 -0.2,0.6c-0,0.133 0.1,0.2 0.3,0.2l0.2,-0l43.7,-19.6c0.266,-0.134 0.333,-0.334 0.2,-0.6Zm-31.3,-5.6l-0,-27.5l10.3,-0.1c4.066,0.2 7.166,1.383 9.3,3.55c2.133,2.166 3.2,5.183 3.2,9.05c-0,4.333 -1.134,7.816 -3.4,10.45c-2.267,2.633 -5.5,4.15 -9.7,4.55l-9.7,-0Zm30.9,25.3l-0.1,0.1l0.1,0.1c0.133,-0 0.2,-0.034 0.2,-0.1c-0.067,-0.067 -0.134,-0.1 -0.2,-0.1Zm-0,-5c-0.067,-0 -0.1,0.066 -0.1,0.2c-0,0.133 0.033,0.2 0.1,0.2c0.133,-0 0.2,-0.067 0.2,-0.2c-0,-0.134 -0.067,-0.2 -0.2,-0.2Zm-0,-5c-0.134,-0 -0.2,0.1 -0.2,0.3c-0,0.2 0.066,0.3 0.2,0.3c0.2,-0 0.3,-0.1 0.3,-0.3c-0,-0.2 -0.1,-0.3 -0.3,-0.3Zm-0,-4.9c-0.2,-0 -0.3,0.1 -0.3,0.3c-0,0.2 0.1,0.3 0.3,0.3c0.266,-0 0.4,-0.1 0.4,-0.3c-0,-0.2 -0.134,-0.3 -0.4,-0.3Zm-4.8,14.9l-0.1,0.1c-0,0.066 0.033,0.1 0.1,0.1c0.066,-0 0.1,-0.034 0.1,-0.1c-0,-0.067 -0.034,-0.1 -0.1,-0.1Zm-0,-5c-0.134,-0 -0.2,0.066 -0.2,0.2c-0,0.133 0.066,0.2 0.2,0.2c0.133,-0 0.2,-0.067 0.2,-0.2c-0,-0.134 -0.067,-0.2 -0.2,-0.2Zm-0,-5c-0.2,-0 -0.3,0.1 -0.3,0.3c-0,0.2 0.1,0.3 0.3,0.3c0.133,-0 0.2,-0.1 0.2,-0.3c-0,-0.2 -0.067,-0.3 -0.2,-0.3Zm-0,-4.9c-0.2,-0 -0.3,0.1 -0.3,0.3c-0,0.2 0.1,0.3 0.3,0.3c0.2,-0 0.3,-0.1 0.3,-0.3c-0,-0.2 -0.1,-0.3 -0.3,-0.3Zm-4.9,14.9l-0.1,0.1l0.1,0.1c0.066,-0 0.1,-0.034 0.1,-0.1c-0,-0.067 -0.034,-0.1 -0.1,-0.1Zm-0,-5c-0.067,-0 -0.1,0.066 -0.1,0.2c-0,0.133 0.033,0.2 0.1,0.2c0.133,-0 0.2,-0.067 0.2,-0.2c-0,-0.134 -0.067,-0.2 -0.2,-0.2Zm-0,-5c-0.134,-0 -0.2,0.1 -0.2,0.3c-0,0.2 0.066,0.3 0.2,0.3c0.2,-0 0.3,-0.1 0.3,-0.3c-0,-0.2 -0.1,-0.3 -0.3,-0.3Zm-4.7,10.1l-0.1,-0.1l-0.1,0.1c-0,0.066 0.033,0.1 0.1,0.1c0.066,-0 0.1,-0.034 0.1,-0.1Zm-0.1,-5.1c-0.134,-0 -0.2,0.066 -0.2,0.2c-0,0.133 0.066,0.2 0.2,0.2c0.133,-0 0.2,-0.067 0.2,-0.2c-0,-0.134 -0.067,-0.2 -0.2,-0.2Zm-0,-5c-0.2,-0 -0.3,0.1 -0.3,0.3c-0,0.2 0.1,0.3 0.3,0.3c0.133,-0 0.2,-0.1 0.2,-0.3c-0,-0.2 -0.067,-0.3 -0.2,-0.3Zm-4.9,10l-0.1,0.1l0.1,0.1c0.066,-0 0.1,-0.034 0.1,-0.1c-0,-0.067 -0.034,-0.1 -0.1,-0.1Zm-0,-5c-0.134,-0 -0.2,0.066 -0.2,0.2c-0,0.133 0.066,0.2 0.2,0.2c0.133,-0 0.2,-0.067 0.2,-0.2c-0,-0.134 -0.067,-0.2 -0.2,-0.2Zm-4.7,5.1l-0.1,-0.1l-0.1,0.1c-0,0.066 0.033,0.1 0.1,0.1c0.066,-0 0.1,-0.034 0.1,-0.1Zm-0.1,-5.1c-0.134,-0 -0.2,0.066 -0.2,0.2c-0,0.133 0.066,0.2 0.2,0.2c0.066,-0 0.1,-0.067 0.1,-0.2c-0,-0.134 -0.034,-0.2 -0.1,-0.2Zm-4.9,5l-0.1,0.1c-0,0.066 0.033,0.1 0.1,0.1c0.066,-0 0.1,-0.034 0.1,-0.1c-0,-0.067 -0.034,-0.1 -0.1,-0.1Zm-0,-5c-0.134,-0 -0.2,0.066 -0.2,0.2c-0,0.133 0.066,0.2 0.2,0.2c0.133,-0 0.2,-0.067 0.2,-0.2c-0,-0.134 -0.067,-0.2 -0.2,-0.2Zm-4.7,5.1l-0.1,-0.1l-0.2,0.1c-0,0.066 0.066,0.1 0.2,0.1c0.066,-0 0.1,-0.034 0.1,-0.1Z" style="fill:#666;fill-rule:nonzero;"/><path d="M72.167,4.178c-7.267,-0 -12.8,2.233 -16.6,6.7c-3.8,4.466 -5.7,10.866 -5.7,19.2c-0,8.2 1.85,14.5 5.55,18.9c3.7,4.4 8.983,6.6 15.85,6.6c7.2,-0 12.716,-2.284 16.55,-6.85c3.833,-4.567 5.75,-11.15 5.75,-19.75c-0,-7.934 -1.834,-14.05 -5.5,-18.35c-3.667,-4.3 -8.967,-6.45 -15.9,-6.45Zm-0.9,49.5c-6.267,-0 -11.05,-2.034 -14.35,-6.1c-3.3,-4.067 -4.95,-9.934 -4.95,-17.6c-0,-7.734 1.716,-13.617 5.15,-17.65c3.433,-4.034 8.416,-6.05 14.95,-6.05c6.333,-0 11.166,1.95 14.5,5.85c3.333,3.9 5,9.583 5,17.05c-0,7.933 -1.75,14 -5.25,18.2c-3.5,4.2 -8.517,6.3 -15.05,6.3Zm11.4,-41.8l-28.1,20l-0,0.9l28.8,-20.4l-0.7,-0.5Zm-34.8,24.7l-4,2.8c-0.2,0.2 -0.234,0.4 -0.1,0.6c0.133,0.133 0.233,0.2 0.3,0.2c0.133,-0 0.233,-0.034 0.3,-0.1l3.6,-2.6l-0.1,-0.9Zm51.9,-36.3c-0.134,-0.334 -0.334,-0.367 -0.6,-0.1l-10.5,7.4l0.6,0.6l10.4,-7.4c0.2,-0.067 0.233,-0.234 0.1,-0.5Zm-0.4,59l-0.1,0.1l0.1,0.1c0.133,-0 0.2,-0.034 0.2,-0.1c-0.067,-0.067 -0.134,-0.1 -0.2,-0.1Zm-0,-5c-0.067,-0 -0.1,0.066 -0.1,0.2c-0,0.133 0.033,0.2 0.1,0.2c0.133,-0 0.2,-0.067 0.2,-0.2c-0,-0.134 -0.067,-0.2 -0.2,-0.2Zm-0,-5c-0.134,-0 -0.2,0.1 -0.2,0.3c-0,0.2 0.066,0.3 0.2,0.3c0.2,-0 0.3,-0.1 0.3,-0.3c-0,-0.2 -0.1,-0.3 -0.3,-0.3Zm-0,-4.9c-0.2,-0 -0.3,0.1 -0.3,0.3c-0,0.2 0.1,0.3 0.3,0.3c0.266,-0 0.4,-0.1 0.4,-0.3c-0,-0.2 -0.134,-0.3 -0.4,-0.3Zm-0,-5c-0.267,-0 -0.4,0.133 -0.4,0.4c-0,0.266 0.133,0.4 0.4,0.4c0.266,-0 0.4,-0.134 0.4,-0.4c-0,-0.267 -0.134,-0.4 -0.4,-0.4Zm-0,-5c-0.267,-0 -0.4,0.166 -0.4,0.5c-0,0.266 0.133,0.4 0.4,0.4c0.333,-0 0.5,-0.134 0.5,-0.4c-0,-0.334 -0.167,-0.5 -0.5,-0.5Zm-0,-5c-0.334,-0 -0.5,0.2 -0.5,0.6c-0,0.333 0.166,0.5 0.5,0.5c0.4,-0 0.6,-0.167 0.6,-0.5c-0,-0.4 -0.2,-0.6 -0.6,-0.6Zm-0,-5c-0.4,-0 -0.6,0.233 -0.6,0.7c-0,0.4 0.2,0.6 0.6,0.6c0.466,-0 0.7,-0.2 0.7,-0.6c-0,-0.467 -0.234,-0.7 -0.7,-0.7Zm-0,-4.9c-0.4,-0 -0.6,0.2 -0.6,0.6c-0,0.466 0.2,0.7 0.6,0.7c0.466,-0 0.7,-0.234 0.7,-0.7c-0,-0.4 -0.234,-0.6 -0.7,-0.6Zm-0,-5c-0.467,-0 -0.7,0.233 -0.7,0.7c-0,0.533 0.233,0.8 0.7,0.8c0.533,-0 0.8,-0.267 0.8,-0.8c-0,-0.467 -0.267,-0.7 -0.8,-0.7Zm-0,-5c-0.534,-0 -0.8,0.266 -0.8,0.8c-0,0.6 0.266,0.9 0.8,0.9c0.6,-0 0.9,-0.3 0.9,-0.9c-0,-0.534 -0.3,-0.8 -0.9,-0.8Zm-0,-5c-0.2,-0 -0.4,0.083 -0.6,0.25c-0.2,0.166 -0.3,0.383 -0.3,0.65c-0,0.266 0.1,0.483 0.3,0.65c0.2,0.166 0.4,0.25 0.6,0.25c0.6,-0 0.9,-0.3 0.9,-0.9c-0,-0.6 -0.3,-0.9 -0.9,-0.9Zm-5,54.8l-0.1,0.1l0.1,0.1c0.066,-0 0.1,-0.034 0.1,-0.1c-0,-0.067 -0.034,-0.1 -0.1,-0.1Zm-0,-5c-0.134,-0 -0.2,0.066 -0.2,0.2c-0,0.133 0.066,0.2 0.2,0.2c0.133,-0 0.2,-0.067 0.2,-0.2c-0,-0.134 -0.067,-0.2 -0.2,-0.2Zm-0,-5c-0.134,-0 -0.2,0.1 -0.2,0.3c-0,0.2 0.066,0.3 0.2,0.3c0.2,-0 0.3,-0.1 0.3,-0.3c-0,-0.2 -0.1,-0.3 -0.3,-0.3Zm-0,-4.9c-0.2,-0 -0.3,0.1 -0.3,0.3c-0,0.2 0.1,0.3 0.3,0.3c0.2,-0 0.3,-0.1 0.3,-0.3c-0,-0.2 -0.1,-0.3 -0.3,-0.3Zm-0,-29.9c-0.467,-0 -0.7,0.233 -0.7,0.7c-0,0.533 0.233,0.8 0.7,0.8c0.533,-0 0.8,-0.267 0.8,-0.8c-0,-0.467 -0.267,-0.7 -0.8,-0.7Zm-0,-5c-0.534,-0 -0.8,0.266 -0.8,0.8c-0,0.6 0.266,0.9 0.8,0.9c0.533,-0 0.8,-0.3 0.8,-0.9c-0,-0.534 -0.267,-0.8 -0.8,-0.8Zm-5,49.8l-0.1,0.1c-0,0.066 0.033,0.1 0.1,0.1c0.066,-0 0.1,-0.034 0.1,-0.1c-0,-0.067 -0.034,-0.1 -0.1,-0.1Zm-0,-5c-0.134,-0 -0.2,0.066 -0.2,0.2c-0,0.133 0.066,0.2 0.2,0.2c0.133,-0 0.2,-0.067 0.2,-0.2c-0,-0.134 -0.067,-0.2 -0.2,-0.2Zm-4.9,5.1l-0.1,-0.1l-0.1,0.1c-0,0.066 0.033,0.1 0.1,0.1c0.066,-0 0.1,-0.034 0.1,-0.1Zm-0.1,-5.1c-0.134,-0 -0.2,0.066 -0.2,0.2c-0,0.133 0.066,0.2 0.2,0.2c0.066,-0 0.1,-0.067 0.1,-0.2c-0,-0.134 -0.034,-0.2 -0.1,-0.2Zm-0,-9.9c-0.267,-0 -0.4,0.1 -0.4,0.3c-0,0.2 0.133,0.3 0.4,0.3c0.2,-0 0.3,-0.1 0.3,-0.3c-0,-0.2 -0.1,-0.3 -0.3,-0.3Zm-0,-5c-0.267,-0 -0.4,0.133 -0.4,0.4c-0,0.266 0.133,0.4 0.4,0.4c0.266,-0 0.4,-0.134 0.4,-0.4c-0,-0.267 -0.134,-0.4 -0.4,-0.4Zm-0,-5c-0.334,-0 -0.5,0.166 -0.5,0.5c-0,0.266 0.166,0.4 0.5,0.4c0.266,-0 0.4,-0.134 0.4,-0.4c-0,-0.334 -0.134,-0.5 -0.4,-0.5Zm-0,-5c-0.4,-0 -0.6,0.2 -0.6,0.6c-0,0.333 0.2,0.5 0.6,0.5c0.333,-0 0.5,-0.167 0.5,-0.5c-0,-0.4 -0.167,-0.6 -0.5,-0.6Zm-0,-5c-0.467,-0 -0.7,0.233 -0.7,0.7c-0,0.4 0.233,0.6 0.7,0.6c0.4,-0 0.6,-0.2 0.6,-0.6c-0,-0.467 -0.2,-0.7 -0.6,-0.7Zm-0,-4.9c-0.467,-0 -0.7,0.2 -0.7,0.6c-0,0.466 0.233,0.7 0.7,0.7c0.4,-0 0.6,-0.234 0.6,-0.7c-0,-0.4 -0.2,-0.6 -0.6,-0.6Zm-0,-5c-0.534,-0 -0.8,0.233 -0.8,0.7c-0,0.533 0.266,0.8 0.8,0.8c0.466,-0 0.7,-0.267 0.7,-0.8c-0,-0.467 -0.234,-0.7 -0.7,-0.7Zm-5.1,44.8l-0.1,0.1l0.1,0.1c0.066,-0 0.1,-0.034 0.1,-0.1c-0,-0.067 -0.034,-0.1 -0.1,-0.1Zm-0,-10c-0.134,-0 -0.2,0.1 -0.2,0.3c-0,0.2 0.066,0.3 0.2,0.3c0.2,-0 0.3,-0.1 0.3,-0.3c-0,-0.2 -0.1,-0.3 -0.3,-0.3Zm-0,-4.9c-0.2,-0 -0.3,0.1 -0.3,0.3c-0,0.2 0.1,0.3 0.3,0.3c0.266,-0 0.4,-0.1 0.4,-0.3c-0,-0.2 -0.134,-0.3 -0.4,-0.3Zm-0,-5c-0.267,-0 -0.4,0.133 -0.4,0.4c-0,0.266 0.133,0.4 0.4,0.4c0.266,-0 0.4,-0.134 0.4,-0.4c-0,-0.267 -0.134,-0.4 -0.4,-0.4Zm-0,-5c-0.267,-0 -0.4,0.166 -0.4,0.5c-0,0.266 0.133,0.4 0.4,0.4c0.333,-0 0.5,-0.134 0.5,-0.4c-0,-0.334 -0.167,-0.5 -0.5,-0.5Zm-0,-5c-0.334,-0 -0.5,0.2 -0.5,0.6c-0,0.333 0.166,0.5 0.5,0.5c0.4,-0 0.6,-0.167 0.6,-0.5c-0,-0.4 -0.2,-0.6 -0.6,-0.6Zm-0,-5c-0.4,-0 -0.6,0.233 -0.6,0.7c-0,0.4 0.2,0.6 0.6,0.6c0.466,-0 0.7,-0.2 0.7,-0.6c-0,-0.467 -0.234,-0.7 -0.7,-0.7Zm-0,-4.9c-0.4,-0 -0.6,0.2 -0.6,0.6c-0,0.466 0.2,0.7 0.6,0.7c0.466,-0 0.7,-0.234 0.7,-0.7c-0,-0.4 -0.234,-0.6 -0.7,-0.6Zm-5,39.8l-0.1,0.1c-0,0.066 0.033,0.1 0.1,0.1c0.066,-0 0.1,-0.034 0.1,-0.1c-0,-0.067 -0.034,-0.1 -0.1,-0.1Zm-0,-10c-0.134,-0 -0.2,0.1 -0.2,0.3c-0,0.2 0.066,0.3 0.2,0.3c0.2,-0 0.3,-0.1 0.3,-0.3c-0,-0.2 -0.1,-0.3 -0.3,-0.3Zm-0,-4.9c-0.2,-0 -0.3,0.1 -0.3,0.3c-0,0.2 0.1,0.3 0.3,0.3c0.2,-0 0.3,-0.1 0.3,-0.3c-0,-0.2 -0.1,-0.3 -0.3,-0.3Zm-0,-5c-0.267,-0 -0.4,0.133 -0.4,0.4c-0,0.266 0.133,0.4 0.4,0.4c0.266,-0 0.4,-0.134 0.4,-0.4c-0,-0.267 -0.134,-0.4 -0.4,-0.4Zm-0,-5c-0.334,-0 -0.5,0.166 -0.5,0.5c-0,0.266 0.166,0.4 0.5,0.4c0.333,-0 0.5,-0.134 0.5,-0.4c-0,-0.334 -0.167,-0.5 -0.5,-0.5Zm-0,-5c-0.334,-0 -0.5,0.2 -0.5,0.6c-0,0.333 0.166,0.5 0.5,0.5c0.333,-0 0.5,-0.167 0.5,-0.5c-0,-0.4 -0.167,-0.6 -0.5,-0.6Zm-0,-5c-0.4,-0 -0.6,0.233 -0.6,0.7c-0,0.4 0.2,0.6 0.6,0.6c0.4,-0 0.6,-0.2 0.6,-0.6c-0,-0.467 -0.2,-0.7 -0.6,-0.7Zm-4.9,35l-0.1,-0.1l-0.1,0.1c-0,0.066 0.033,0.1 0.1,0.1c0.066,-0 0.1,-0.034 0.1,-0.1Zm-0.1,-10.1c-0.2,-0 -0.3,0.1 -0.3,0.3c-0,0.2 0.1,0.3 0.3,0.3c0.133,-0 0.2,-0.1 0.2,-0.3c-0,-0.2 -0.067,-0.3 -0.2,-0.3Zm-0,-4.9c-0.2,-0 -0.3,0.1 -0.3,0.3c-0,0.2 0.1,0.3 0.3,0.3c0.2,-0 0.3,-0.1 0.3,-0.3c-0,-0.2 -0.1,-0.3 -0.3,-0.3Zm-0,-5c-0.267,-0 -0.4,0.133 -0.4,0.4c-0,0.266 0.133,0.4 0.4,0.4c0.266,-0 0.4,-0.134 0.4,-0.4c-0,-0.267 -0.134,-0.4 -0.4,-0.4Zm-0,-5c-0.334,-0 -0.5,0.166 -0.5,0.5c-0,0.266 0.166,0.4 0.5,0.4c0.333,-0 0.5,-0.134 0.5,-0.4c-0,-0.334 -0.167,-0.5 -0.5,-0.5Zm-0,-5c-0.4,-0 -0.6,0.2 -0.6,0.6c-0,0.333 0.2,0.5 0.6,0.5c0.333,-0 0.5,-0.167 0.5,-0.5c-0,-0.4 -0.167,-0.6 -0.5,-0.6Zm-0,-5c-0.4,-0 -0.6,0.233 -0.6,0.7c-0,0.4 0.2,0.6 0.6,0.6c0.4,-0 0.6,-0.2 0.6,-0.6c-0,-0.467 -0.2,-0.7 -0.6,-0.7Zm-4.9,35l-0.1,-0.1l-0.2,0.1c-0,0.066 0.066,0.1 0.2,0.1c0.066,-0 0.1,-0.034 0.1,-0.1Zm-0.1,-10.1c-0.2,-0 -0.3,0.1 -0.3,0.3c-0,0.2 0.1,0.3 0.3,0.3c0.133,-0 0.2,-0.1 0.2,-0.3c-0,-0.2 -0.067,-0.3 -0.2,-0.3Zm-0,-4.9c-0.267,-0 -0.4,0.1 -0.4,0.3c-0,0.2 0.133,0.3 0.4,0.3c0.2,-0 0.3,-0.1 0.3,-0.3c-0,-0.2 -0.1,-0.3 -0.3,-0.3Zm-0,-5c-0.267,-0 -0.4,0.133 -0.4,0.4c-0,0.266 0.133,0.4 0.4,0.4c0.266,-0 0.4,-0.134 0.4,-0.4c-0,-0.267 -0.134,-0.4 -0.4,-0.4Zm-0,-5c-0.334,-0 -0.5,0.166 -0.5,0.5c-0,0.266 0.166,0.4 0.5,0.4c0.266,-0 0.4,-0.134 0.4,-0.4c-0,-0.334 -0.134,-0.5 -0.4,-0.5Zm-0,-5c-0.4,-0 -0.6,0.2 -0.6,0.6c-0,0.333 0.2,0.5 0.6,0.5c0.333,-0 0.5,-0.167 0.5,-0.5c-0,-0.4 -0.167,-0.6 -0.5,-0.6Zm-5.1,29.9l-0.1,0.1l0.1,0.1c0.066,-0 0.1,-0.034 0.1,-0.1c-0,-0.067 -0.034,-0.1 -0.1,-0.1Zm-0,-14.9c-0.2,-0 -0.3,0.1 -0.3,0.3c-0,0.2 0.1,0.3 0.3,0.3c0.266,-0 0.4,-0.1 0.4,-0.3c-0,-0.2 -0.134,-0.3 -0.4,-0.3Zm-0,-5c-0.267,-0 -0.4,0.133 -0.4,0.4c-0,0.266 0.133,0.4 0.4,0.4c0.266,-0 0.4,-0.134 0.4,-0.4c-0,-0.267 -0.134,-0.4 -0.4,-0.4Zm-0,-5c-0.267,-0 -0.4,0.166 -0.4,0.5c-0,0.266 0.133,0.4 0.4,0.4c0.333,-0 0.5,-0.134 0.5,-0.4c-0,-0.334 -0.167,-0.5 -0.5,-0.5Zm-5,24.9l-0.1,0.1c-0,0.066 0.033,0.1 0.1,0.1c0.066,-0 0.1,-0.034 0.1,-0.1c-0,-0.067 -0.034,-0.1 -0.1,-0.1Zm-0,-5c-0.134,-0 -0.2,0.066 -0.2,0.2c-0,0.133 0.066,0.2 0.2,0.2c0.133,-0 0.2,-0.067 0.2,-0.2c-0,-0.134 -0.067,-0.2 -0.2,-0.2Zm-4.9,5.1l-0.1,-0.1l-0.1,0.1c-0,0.066 0.033,0.1 0.1,0.1c0.066,-0 0.1,-0.034 0.1,-0.1Zm-0.1,-5.1c-0.134,-0 -0.2,0.066 -0.2,0.2c-0,0.133 0.066,0.2 0.2,0.2c0.066,-0 0.1,-0.067 0.1,-0.2c-0,-0.134 -0.034,-0.2 -0.1,-0.2Zm-0,-5c-0.2,-0 -0.3,0.1 -0.3,0.3c-0,0.2 0.1,0.3 0.3,0.3c0.133,-0 0.2,-0.1 0.2,-0.3c-0,-0.2 -0.067,-0.3 -0.2,-0.3Zm-0,-4.9c-0.267,-0 -0.4,0.1 -0.4,0.3c-0,0.2 0.133,0.3 0.4,0.3c0.2,-0 0.3,-0.1 0.3,-0.3c-0,-0.2 -0.1,-0.3 -0.3,-0.3Zm-0,-5c-0.267,-0 -0.4,0.133 -0.4,0.4c-0,0.266 0.133,0.4 0.4,0.4c0.266,-0 0.4,-0.134 0.4,-0.4c-0,-0.267 -0.134,-0.4 -0.4,-0.4Z" style="fill:#666;fill-rule:nonzero;"/><path d="M125.167,35.578c3.4,-1.067 6.083,-2.817 8.05,-5.25c1.966,-2.434 3.183,-5.25 3.65,-8.45l-2,-1c-0.334,3.2 -1.434,5.983 -3.3,8.35c-1.867,2.366 -4.5,3.983 -7.9,4.85l-11.5,-0.1l-0,-23.7l-2,-0.9l-0,45.8l2,-0l-0,-19.2l10.9,-0c2.333,3.6 4.616,7 6.85,10.2c2.233,3.2 4.883,6.3 7.95,9.3l0.6,0.3c0.266,-0.134 0.5,-0.284 0.7,-0.45c0.2,-0.167 0.4,-0.317 0.6,-0.45l-0,-0.4c-3,-3.134 -5.634,-6.167 -7.9,-9.1c-2.267,-2.934 -4.5,-6.2 -6.7,-9.8Zm16.4,-15.8l-4.6,-2.2c-0.267,-4.067 -1.667,-7.267 -4.2,-9.6c-2.534,-2.334 -6.1,-3.5 -10.7,-3.5l-11.9,0.1l-0,0.5l-10.6,-5c-0.267,-0.067 -0.467,-0 -0.6,0.2c-0.134,0.266 -0.067,0.466 0.2,0.6l42.1,19.6c-0,0.066 0.066,0.1 0.2,0.1c0.2,-0 0.3,-0.1 0.3,-0.3c0.133,-0.267 0.066,-0.434 -0.2,-0.5Zm-6.8,-3.2l-21.7,-10.1l9.4,-0.1c3.6,0.133 6.433,1.1 8.5,2.9c2.066,1.8 3.333,4.233 3.8,7.3Zm6.7,42.6c-0.067,-0 -0.1,0.033 -0.1,0.1c-0,0.066 0.033,0.1 0.1,0.1l0.1,-0.1l-0.1,-0.1Zm-0,-5c-0.134,-0 -0.2,0.066 -0.2,0.2c-0,0.066 0.066,0.1 0.2,0.1c0.133,-0 0.2,-0.034 0.2,-0.1c-0,-0.134 -0.067,-0.2 -0.2,-0.2Zm-0,-5c-0.2,-0 -0.3,0.066 -0.3,0.2c-0,0.2 0.1,0.3 0.3,0.3c0.133,-0 0.2,-0.1 0.2,-0.3c-0,-0.134 -0.067,-0.2 -0.2,-0.2Zm-0,-5c-0.267,-0 -0.4,0.1 -0.4,0.3c-0,0.266 0.133,0.4 0.4,0.4c0.2,-0 0.3,-0.134 0.3,-0.4c-0,-0.2 -0.1,-0.3 -0.3,-0.3Zm-0,-5c-0.267,-0 -0.4,0.133 -0.4,0.4c-0,0.266 0.133,0.4 0.4,0.4c0.266,-0 0.4,-0.134 0.4,-0.4c-0,-0.267 -0.134,-0.4 -0.4,-0.4Zm-0,-5c-0.334,-0 -0.5,0.166 -0.5,0.5c-0,0.333 0.166,0.5 0.5,0.5c0.266,-0 0.4,-0.167 0.4,-0.5c-0,-0.334 -0.134,-0.5 -0.4,-0.5Zm-0,-4.9c-0.4,-0 -0.6,0.166 -0.6,0.5c-0,0.333 0.2,0.5 0.6,0.5c0.333,-0 0.5,-0.167 0.5,-0.5c-0,-0.334 -0.167,-0.5 -0.5,-0.5Zm-0,-5c-0.4,-0 -0.6,0.2 -0.6,0.6c-0,0.4 0.2,0.6 0.6,0.6c0.4,-0 0.6,-0.2 0.6,-0.6c-0,-0.4 -0.2,-0.6 -0.6,-0.6Zm-4.7,34.9c-0.067,-0 -0.1,0.033 -0.1,0.1c-0,0.066 0.033,0.1 0.1,0.1l0.1,-0.1c-0,-0.067 -0.034,-0.1 -0.1,-0.1Zm-0,-15c-0.2,-0 -0.3,0.1 -0.3,0.3c-0,0.266 0.1,0.4 0.3,0.4c0.2,-0 0.3,-0.134 0.3,-0.4c-0,-0.2 -0.1,-0.3 -0.3,-0.3Zm-0,-5c-0.267,-0 -0.4,0.133 -0.4,0.4c-0,0.266 0.133,0.4 0.4,0.4c0.266,-0 0.4,-0.134 0.4,-0.4c-0,-0.267 -0.134,-0.4 -0.4,-0.4Zm-0,-5c-0.334,-0 -0.5,0.166 -0.5,0.5c-0,0.333 0.166,0.5 0.5,0.5c0.333,-0 0.5,-0.167 0.5,-0.5c-0,-0.334 -0.167,-0.5 -0.5,-0.5Zm-0,-4.9c-0.334,-0 -0.5,0.166 -0.5,0.5c-0,0.333 0.166,0.5 0.5,0.5c0.333,-0 0.5,-0.167 0.5,-0.5c-0,-0.334 -0.167,-0.5 -0.5,-0.5Zm-4.7,29.9c-0.067,-0 -0.1,0.033 -0.1,0.1l0.1,0.1l0.1,-0.1c-0,-0.067 -0.034,-0.1 -0.1,-0.1Zm-0,-5c-0.134,-0 -0.2,0.066 -0.2,0.2c-0,0.066 0.066,0.1 0.2,0.1c0.133,-0 0.2,-0.034 0.2,-0.1c-0,-0.134 -0.067,-0.2 -0.2,-0.2Zm-0,-15c-0.267,-0 -0.4,0.133 -0.4,0.4c-0,0.266 0.133,0.4 0.4,0.4c0.266,-0 0.4,-0.134 0.4,-0.4c-0,-0.267 -0.134,-0.4 -0.4,-0.4Zm-0,-5c-0.334,-0 -0.5,0.166 -0.5,0.5c-0,0.333 0.166,0.5 0.5,0.5c0.333,-0 0.5,-0.167 0.5,-0.5c-0,-0.334 -0.167,-0.5 -0.5,-0.5Zm-0,-14.9c-0.467,-0 -0.7,0.233 -0.7,0.7c-0,0.466 0.233,0.7 0.7,0.7c0.466,-0 0.7,-0.234 0.7,-0.7c-0,-0.467 -0.234,-0.7 -0.7,-0.7Zm-4.7,39.9c-0.067,-0 -0.1,0.033 -0.1,0.1l0.1,0.1l0.2,-0.1c-0,-0.067 -0.067,-0.1 -0.2,-0.1Zm-0,-5c-0.067,-0 -0.1,0.066 -0.1,0.2c-0,0.066 0.033,0.1 0.1,0.1c0.133,-0 0.2,-0.034 0.2,-0.1c-0,-0.134 -0.067,-0.2 -0.2,-0.2Zm-0,-5c-0.134,-0 -0.2,0.066 -0.2,0.2c-0,0.2 0.066,0.3 0.2,0.3c0.2,-0 0.3,-0.1 0.3,-0.3c-0,-0.134 -0.1,-0.2 -0.3,-0.2Zm-0,-19.9c-0.334,-0 -0.5,0.166 -0.5,0.5c-0,0.333 0.166,0.5 0.5,0.5c0.4,-0 0.6,-0.167 0.6,-0.5c-0,-0.334 -0.2,-0.5 -0.6,-0.5Zm-0,-5c-0.4,-0 -0.6,0.2 -0.6,0.6c-0,0.4 0.2,0.6 0.6,0.6c0.466,-0 0.7,-0.2 0.7,-0.6c-0,-0.4 -0.234,-0.6 -0.7,-0.6Zm-0,-5c-0.4,-0 -0.6,0.233 -0.6,0.7c-0,0.466 0.2,0.7 0.6,0.7c0.466,-0 0.7,-0.234 0.7,-0.7c-0,-0.467 -0.234,-0.7 -0.7,-0.7Zm-4.6,39.9c-0.067,-0 -0.1,0.033 -0.1,0.1c-0,0.066 0.033,0.1 0.1,0.1l0.1,-0.1l-0.1,-0.1Zm-0,-5c-0.134,-0 -0.2,0.066 -0.2,0.2c-0,0.066 0.066,0.1 0.2,0.1c0.066,-0 0.1,-0.034 0.1,-0.1c-0,-0.134 -0.034,-0.2 -0.1,-0.2Zm-0,-5c-0.2,-0 -0.3,0.066 -0.3,0.2c-0,0.2 0.1,0.3 0.3,0.3c0.133,-0 0.2,-0.1 0.2,-0.3c-0,-0.134 -0.067,-0.2 -0.2,-0.2Zm-0,-5c-0.267,-0 -0.4,0.1 -0.4,0.3c-0,0.266 0.133,0.4 0.4,0.4c0.2,-0 0.3,-0.134 0.3,-0.4c-0,-0.2 -0.1,-0.3 -0.3,-0.3Zm-0,-5c-0.267,-0 -0.4,0.133 -0.4,0.4c-0,0.266 0.133,0.4 0.4,0.4c0.266,-0 0.4,-0.134 0.4,-0.4c-0,-0.267 -0.134,-0.4 -0.4,-0.4Zm-0,-9.9c-0.4,-0 -0.6,0.166 -0.6,0.5c-0,0.333 0.2,0.5 0.6,0.5c0.333,-0 0.5,-0.167 0.5,-0.5c-0,-0.334 -0.167,-0.5 -0.5,-0.5Zm-0,-5c-0.4,-0 -0.6,0.2 -0.6,0.6c-0,0.4 0.2,0.6 0.6,0.6c0.4,-0 0.6,-0.2 0.6,-0.6c-0,-0.4 -0.2,-0.6 -0.6,-0.6Zm-0,-5c-0.467,-0 -0.7,0.233 -0.7,0.7c-0,0.466 0.233,0.7 0.7,0.7c0.4,-0 0.6,-0.234 0.6,-0.7c-0,-0.467 -0.2,-0.7 -0.6,-0.7Zm-0,-5c-0.534,-0 -0.8,0.266 -0.8,0.8c-0,0.466 0.266,0.7 0.8,0.7c0.466,-0 0.7,-0.234 0.7,-0.7c-0,-0.534 -0.234,-0.8 -0.7,-0.8Zm-4.7,44.9c-0.067,-0 -0.1,0.033 -0.1,0.1c-0,0.066 0.033,0.1 0.1,0.1l0.1,-0.1l-0.1,-0.1Zm-0,-5c-0.134,-0 -0.2,0.066 -0.2,0.2c-0,0.066 0.066,0.1 0.2,0.1c0.133,-0 0.2,-0.034 0.2,-0.1c-0,-0.134 -0.067,-0.2 -0.2,-0.2Zm-0,-5c-0.2,-0 -0.3,0.066 -0.3,0.2c-0,0.2 0.1,0.3 0.3,0.3c0.133,-0 0.2,-0.1 0.2,-0.3c-0,-0.134 -0.067,-0.2 -0.2,-0.2Zm-0,-5c-0.2,-0 -0.3,0.1 -0.3,0.3c-0,0.266 0.1,0.4 0.3,0.4c0.2,-0 0.3,-0.134 0.3,-0.4c-0,-0.2 -0.1,-0.3 -0.3,-0.3Zm-0,-5c-0.267,-0 -0.4,0.133 -0.4,0.4c-0,0.266 0.133,0.4 0.4,0.4c0.266,-0 0.4,-0.134 0.4,-0.4c-0,-0.267 -0.134,-0.4 -0.4,-0.4Zm-0,-9.9c-0.334,-0 -0.5,0.166 -0.5,0.5c-0,0.333 0.166,0.5 0.5,0.5c0.333,-0 0.5,-0.167 0.5,-0.5c-0,-0.334 -0.167,-0.5 -0.5,-0.5Zm-0,-5c-0.4,-0 -0.6,0.2 -0.6,0.6c-0,0.4 0.2,0.6 0.6,0.6c0.4,-0 0.6,-0.2 0.6,-0.6c-0,-0.4 -0.2,-0.6 -0.6,-0.6Zm-0,-5c-0.467,-0 -0.7,0.233 -0.7,0.7c-0,0.466 0.233,0.7 0.7,0.7c0.466,-0 0.7,-0.234 0.7,-0.7c-0,-0.467 -0.234,-0.7 -0.7,-0.7Zm-0,-5c-0.534,-0 -0.8,0.266 -0.8,0.8c-0,0.466 0.266,0.7 0.8,0.7c0.466,-0 0.7,-0.234 0.7,-0.7c-0,-0.534 -0.234,-0.8 -0.7,-0.8Zm-4.7,44.9c-0.067,-0 -0.1,0.033 -0.1,0.1l0.1,0.1l0.1,-0.1c-0,-0.067 -0.034,-0.1 -0.1,-0.1Zm-4.7,-0c-0.067,-0 -0.1,0.033 -0.1,0.1l0.1,0.1l0.1,-0.1c-0,-0.067 -0.034,-0.1 -0.1,-0.1Zm-4.6,-0c-0.134,-0 -0.2,0.033 -0.2,0.1c0.066,0.066 0.133,0.1 0.2,0.1l0.1,-0.1l-0.1,-0.1Zm-0,-5c-0.134,-0 -0.2,0.066 -0.2,0.2c-0,0.066 0.066,0.1 0.2,0.1c0.066,-0 0.1,-0.034 0.1,-0.1c-0,-0.134 -0.034,-0.2 -0.1,-0.2Zm-0,-5c-0.2,-0 -0.3,0.066 -0.3,0.2c-0,0.2 0.1,0.3 0.3,0.3c0.133,-0 0.2,-0.1 0.2,-0.3c-0,-0.134 -0.067,-0.2 -0.2,-0.2Zm-0,-5c-0.267,-0 -0.4,0.1 -0.4,0.3c-0,0.266 0.133,0.4 0.4,0.4c0.2,-0 0.3,-0.134 0.3,-0.4c-0,-0.2 -0.1,-0.3 -0.3,-0.3Zm-0,-5c-0.267,-0 -0.4,0.133 -0.4,0.4c-0,0.266 0.133,0.4 0.4,0.4c0.266,-0 0.4,-0.134 0.4,-0.4c-0,-0.267 -0.134,-0.4 -0.4,-0.4Zm-0,-5c-0.334,-0 -0.5,0.166 -0.5,0.5c-0,0.333 0.166,0.5 0.5,0.5c0.266,-0 0.4,-0.167 0.4,-0.5c-0,-0.334 -0.134,-0.5 -0.4,-0.5Zm-0,-4.9c-0.4,-0 -0.6,0.166 -0.6,0.5c-0,0.333 0.2,0.5 0.6,0.5c0.333,-0 0.5,-0.167 0.5,-0.5c-0,-0.334 -0.167,-0.5 -0.5,-0.5Zm-0,-5c-0.467,-0 -0.7,0.2 -0.7,0.6c-0,0.4 0.233,0.6 0.7,0.6c0.4,-0 0.6,-0.2 0.6,-0.6c-0,-0.4 -0.2,-0.6 -0.6,-0.6Zm-0,-5c-0.467,-0 -0.7,0.233 -0.7,0.7c-0,0.466 0.233,0.7 0.7,0.7c0.4,-0 0.6,-0.234 0.6,-0.7c-0,-0.467 -0.2,-0.7 -0.6,-0.7Zm-0,-5c-0.534,-0 -0.8,0.266 -0.8,0.8c-0,0.466 0.266,0.7 0.8,0.7c0.466,-0 0.7,-0.234 0.7,-0.7c-0,-0.534 -0.234,-0.8 -0.7,-0.8Zm-0,-5c-0.6,-0 -0.9,0.3 -0.9,0.9c-0,0.533 0.3,0.8 0.9,0.8c0.533,-0 0.8,-0.267 0.8,-0.8c-0,-0.6 -0.267,-0.9 -0.8,-0.9Z" style="fill:#666;fill-rule:nonzero;"/><path d="M161.967,23.578l-0,31.6l2,-0l-0,-31.6l-2,-0Zm22.3,-3.9l-20.3,-0l-0,-13.1l7.6,-0l8.3,0.1l0.3,-1.7l-0.2,-0.4l-34,-0l-0.3,1.7l0.3,0.4l8.6,-0.1l7.4,-0l-0,13.1l-20.5,-0c-0.267,-0 -0.4,0.133 -0.4,0.4c-0,0.266 0.133,0.4 0.4,0.4l42.8,-0c0.266,-0 0.4,-0.134 0.4,-0.4c-0,-0.267 -0.134,-0.4 -0.4,-0.4Zm-0,39.6l-0.1,0.1l0.1,0.1c0.133,-0 0.2,-0.034 0.2,-0.1c-0.067,-0.067 -0.134,-0.1 -0.2,-0.1Zm-0,-5c-0.067,-0 -0.1,0.066 -0.1,0.2c-0,0.133 0.033,0.2 0.1,0.2c0.133,-0 0.2,-0.067 0.2,-0.2c-0,-0.134 -0.067,-0.2 -0.2,-0.2Zm-0,-5c-0.134,-0 -0.2,0.1 -0.2,0.3c-0,0.2 0.066,0.3 0.2,0.3c0.2,-0 0.3,-0.1 0.3,-0.3c-0,-0.2 -0.1,-0.3 -0.3,-0.3Zm-0,-4.9c-0.2,-0 -0.3,0.1 -0.3,0.3c-0,0.2 0.1,0.3 0.3,0.3c0.266,-0 0.4,-0.1 0.4,-0.3c-0,-0.2 -0.134,-0.3 -0.4,-0.3Zm-0,-5c-0.267,-0 -0.4,0.133 -0.4,0.4c-0,0.266 0.133,0.4 0.4,0.4c0.266,-0 0.4,-0.134 0.4,-0.4c-0,-0.267 -0.134,-0.4 -0.4,-0.4Zm-0,-5c-0.267,-0 -0.4,0.166 -0.4,0.5c-0,0.266 0.133,0.4 0.4,0.4c0.333,-0 0.5,-0.134 0.5,-0.4c-0,-0.334 -0.167,-0.5 -0.5,-0.5Zm-0,-5c-0.334,-0 -0.5,0.2 -0.5,0.6c-0,0.333 0.166,0.5 0.5,0.5c0.4,-0 0.6,-0.167 0.6,-0.5c-0,-0.4 -0.2,-0.6 -0.6,-0.6Zm-0,-5c-0.4,-0 -0.6,0.233 -0.6,0.7c-0,0.4 0.2,0.6 0.6,0.6c0.466,-0 0.7,-0.2 0.7,-0.6c-0,-0.467 -0.234,-0.7 -0.7,-0.7Zm-4.7,34.9l-0.1,0.1c-0,0.066 0.033,0.1 0.1,0.1c0.066,-0 0.1,-0.034 0.1,-0.1c-0,-0.067 -0.034,-0.1 -0.1,-0.1Zm-0,-5c-0.134,-0 -0.2,0.066 -0.2,0.2c-0,0.133 0.066,0.2 0.2,0.2c0.133,-0 0.2,-0.067 0.2,-0.2c-0,-0.134 -0.067,-0.2 -0.2,-0.2Zm-0,-5c-0.2,-0 -0.3,0.1 -0.3,0.3c-0,0.2 0.1,0.3 0.3,0.3c0.133,-0 0.2,-0.1 0.2,-0.3c-0,-0.2 -0.067,-0.3 -0.2,-0.3Zm-0,-4.9c-0.2,-0 -0.3,0.1 -0.3,0.3c-0,0.2 0.1,0.3 0.3,0.3c0.2,-0 0.3,-0.1 0.3,-0.3c-0,-0.2 -0.1,-0.3 -0.3,-0.3Zm-0,-5c-0.267,-0 -0.4,0.133 -0.4,0.4c-0,0.266 0.133,0.4 0.4,0.4c0.266,-0 0.4,-0.134 0.4,-0.4c-0,-0.267 -0.134,-0.4 -0.4,-0.4Zm-0,-5c-0.334,-0 -0.5,0.166 -0.5,0.5c-0,0.266 0.166,0.4 0.5,0.4c0.333,-0 0.5,-0.134 0.5,-0.4c-0,-0.334 -0.167,-0.5 -0.5,-0.5Zm-0,-5c-0.334,-0 -0.5,0.2 -0.5,0.6c-0,0.333 0.166,0.5 0.5,0.5c0.333,-0 0.5,-0.167 0.5,-0.5c-0,-0.4 -0.167,-0.6 -0.5,-0.6Zm-0,-5c-0.4,-0 -0.6,0.233 -0.6,0.7c-0,0.4 0.2,0.6 0.6,0.6c0.4,-0 0.6,-0.2 0.6,-0.6c-0,-0.467 -0.2,-0.7 -0.6,-0.7Zm-4.8,34.9l-0.1,0.1l0.1,0.1c0.066,-0 0.1,-0.034 0.1,-0.1c-0,-0.067 -0.034,-0.1 -0.1,-0.1Zm-0,-5c-0.067,-0 -0.1,0.066 -0.1,0.2c-0,0.133 0.033,0.2 0.1,0.2c0.133,-0 0.2,-0.067 0.2,-0.2c-0,-0.134 -0.067,-0.2 -0.2,-0.2Zm-0,-5c-0.134,-0 -0.2,0.1 -0.2,0.3c-0,0.2 0.066,0.3 0.2,0.3c0.2,-0 0.3,-0.1 0.3,-0.3c-0,-0.2 -0.1,-0.3 -0.3,-0.3Zm-0,-4.9c-0.2,-0 -0.3,0.1 -0.3,0.3c-0,0.2 0.1,0.3 0.3,0.3c0.266,-0 0.4,-0.1 0.4,-0.3c-0,-0.2 -0.134,-0.3 -0.4,-0.3Zm-0,-5c-0.267,-0 -0.4,0.133 -0.4,0.4c-0,0.266 0.133,0.4 0.4,0.4c0.266,-0 0.4,-0.134 0.4,-0.4c-0,-0.267 -0.134,-0.4 -0.4,-0.4Zm-0,-5c-0.267,-0 -0.4,0.166 -0.4,0.5c-0,0.266 0.133,0.4 0.4,0.4c0.333,-0 0.5,-0.134 0.5,-0.4c-0,-0.334 -0.167,-0.5 -0.5,-0.5Zm-0,-5c-0.334,-0 -0.5,0.2 -0.5,0.6c-0,0.333 0.166,0.5 0.5,0.5c0.4,-0 0.6,-0.167 0.6,-0.5c-0,-0.4 -0.2,-0.6 -0.6,-0.6Zm-0,-5c-0.4,-0 -0.6,0.233 -0.6,0.7c-0,0.4 0.2,0.6 0.6,0.6c0.4,-0 0.6,-0.2 0.6,-0.6c-0,-0.467 -0.2,-0.7 -0.6,-0.7Zm-4.6,35l-0.1,-0.1l-0.1,0.1c-0,0.066 0.033,0.1 0.1,0.1c0.066,-0 0.1,-0.034 0.1,-0.1Zm-0.1,-5.1c-0.134,-0 -0.2,0.066 -0.2,0.2c-0,0.133 0.066,0.2 0.2,0.2c0.133,-0 0.2,-0.067 0.2,-0.2c-0,-0.134 -0.067,-0.2 -0.2,-0.2Zm-0,-5c-0.2,-0 -0.3,0.1 -0.3,0.3c-0,0.2 0.1,0.3 0.3,0.3c0.133,-0 0.2,-0.1 0.2,-0.3c-0,-0.2 -0.067,-0.3 -0.2,-0.3Zm-0,-4.9c-0.2,-0 -0.3,0.1 -0.3,0.3c-0,0.2 0.1,0.3 0.3,0.3c0.2,-0 0.3,-0.1 0.3,-0.3c-0,-0.2 -0.1,-0.3 -0.3,-0.3Zm-0,-5c-0.267,-0 -0.4,0.133 -0.4,0.4c-0,0.266 0.133,0.4 0.4,0.4c0.266,-0 0.4,-0.134 0.4,-0.4c-0,-0.267 -0.134,-0.4 -0.4,-0.4Zm-0,-5c-0.334,-0 -0.5,0.166 -0.5,0.5c-0,0.266 0.166,0.4 0.5,0.4c0.333,-0 0.5,-0.134 0.5,-0.4c-0,-0.334 -0.167,-0.5 -0.5,-0.5Zm-0,-5c-0.4,-0 -0.6,0.2 -0.6,0.6c-0,0.333 0.2,0.5 0.6,0.5c0.333,-0 0.5,-0.167 0.5,-0.5c-0,-0.4 -0.167,-0.6 -0.5,-0.6Zm-0,-5c-0.4,-0 -0.6,0.233 -0.6,0.7c-0,0.4 0.2,0.6 0.6,0.6c0.4,-0 0.6,-0.2 0.6,-0.6c-0,-0.467 -0.2,-0.7 -0.6,-0.7Zm-4.8,34.9l-0.1,0.1l0.1,0.1c0.066,-0 0.1,-0.034 0.1,-0.1c-0,-0.067 -0.034,-0.1 -0.1,-0.1Zm-4.6,0.1l-0.1,-0.1l-0.1,0.1c-0,0.066 0.033,0.1 0.1,0.1c0.066,-0 0.1,-0.034 0.1,-0.1Zm-4.9,-0.1l-0.1,0.1l0.1,0.1c0.066,-0 0.1,-0.034 0.1,-0.1c-0,-0.067 -0.034,-0.1 -0.1,-0.1Zm-0,-5c-0.134,-0 -0.2,0.066 -0.2,0.2c-0,0.133 0.066,0.2 0.2,0.2c0.133,-0 0.2,-0.067 0.2,-0.2c-0,-0.134 -0.067,-0.2 -0.2,-0.2Zm-0,-5c-0.134,-0 -0.2,0.1 -0.2,0.3c-0,0.2 0.066,0.3 0.2,0.3c0.2,-0 0.3,-0.1 0.3,-0.3c-0,-0.2 -0.1,-0.3 -0.3,-0.3Zm-0,-4.9c-0.2,-0 -0.3,0.1 -0.3,0.3c-0,0.2 0.1,0.3 0.3,0.3c0.2,-0 0.3,-0.1 0.3,-0.3c-0,-0.2 -0.1,-0.3 -0.3,-0.3Zm-0,-5c-0.267,-0 -0.4,0.133 -0.4,0.4c-0,0.266 0.133,0.4 0.4,0.4c0.266,-0 0.4,-0.134 0.4,-0.4c-0,-0.267 -0.134,-0.4 -0.4,-0.4Zm-0,-5c-0.334,-0 -0.5,0.166 -0.5,0.5c-0,0.266 0.166,0.4 0.5,0.4c0.333,-0 0.5,-0.134 0.5,-0.4c-0,-0.334 -0.167,-0.5 -0.5,-0.5Zm-0,-5c-0.334,-0 -0.5,0.2 -0.5,0.6c-0,0.333 0.166,0.5 0.5,0.5c0.333,-0 0.5,-0.167 0.5,-0.5c-0,-0.4 -0.167,-0.6 -0.5,-0.6Zm-0,-5c-0.4,-0 -0.6,0.233 -0.6,0.7c-0,0.4 0.2,0.6 0.6,0.6c0.4,-0 0.6,-0.2 0.6,-0.6c-0,-0.467 -0.2,-0.7 -0.6,-0.7Zm-4.6,35l-0.1,-0.1l-0.2,0.1c-0,0.066 0.066,0.1 0.2,0.1c0.066,-0 0.1,-0.034 0.1,-0.1Zm-0.1,-5.1c-0.134,-0 -0.2,0.066 -0.2,0.2c-0,0.133 0.066,0.2 0.2,0.2c0.066,-0 0.1,-0.067 0.1,-0.2c-0,-0.134 -0.034,-0.2 -0.1,-0.2Zm-0,-5c-0.2,-0 -0.3,0.1 -0.3,0.3c-0,0.2 0.1,0.3 0.3,0.3c0.133,-0 0.2,-0.1 0.2,-0.3c-0,-0.2 -0.067,-0.3 -0.2,-0.3Zm-0,-4.9c-0.267,-0 -0.4,0.1 -0.4,0.3c-0,0.2 0.133,0.3 0.4,0.3c0.2,-0 0.3,-0.1 0.3,-0.3c-0,-0.2 -0.1,-0.3 -0.3,-0.3Zm-0,-5c-0.267,-0 -0.4,0.133 -0.4,0.4c-0,0.266 0.133,0.4 0.4,0.4c0.266,-0 0.4,-0.134 0.4,-0.4c-0,-0.267 -0.134,-0.4 -0.4,-0.4Zm-0,-5c-0.334,-0 -0.5,0.166 -0.5,0.5c-0,0.266 0.166,0.4 0.5,0.4c0.266,-0 0.4,-0.134 0.4,-0.4c-0,-0.334 -0.134,-0.5 -0.4,-0.5Zm-0,-5c-0.4,-0 -0.6,0.2 -0.6,0.6c-0,0.333 0.2,0.5 0.6,0.5c0.333,-0 0.5,-0.167 0.5,-0.5c-0,-0.4 -0.167,-0.6 -0.5,-0.6Zm-0,-5c-0.467,-0 -0.7,0.233 -0.7,0.7c-0,0.4 0.233,0.6 0.7,0.6c0.4,-0 0.6,-0.2 0.6,-0.6c-0,-0.467 -0.2,-0.7 -0.6,-0.7Zm-4.8,34.9l-0.1,0.1c-0,0.066 0.033,0.1 0.1,0.1c0.066,-0 0.1,-0.034 0.1,-0.1c-0,-0.067 -0.034,-0.1 -0.1,-0.1Zm-0,-5c-0.134,-0 -0.2,0.066 -0.2,0.2c-0,0.133 0.066,0.2 0.2,0.2c0.133,-0 0.2,-0.067 0.2,-0.2c-0,-0.134 -0.067,-0.2 -0.2,-0.2Zm-0,-5c-0.2,-0 -0.3,0.1 -0.3,0.3c-0,0.2 0.1,0.3 0.3,0.3c0.2,-0 0.3,-0.1 0.3,-0.3c-0,-0.2 -0.1,-0.3 -0.3,-0.3Zm-0,-4.9c-0.2,-0 -0.3,0.1 -0.3,0.3c-0,0.2 0.1,0.3 0.3,0.3c0.2,-0 0.3,-0.1 0.3,-0.3c-0,-0.2 -0.1,-0.3 -0.3,-0.3Zm-0,-5c-0.267,-0 -0.4,0.133 -0.4,0.4c-0,0.266 0.133,0.4 0.4,0.4c0.266,-0 0.4,-0.134 0.4,-0.4c-0,-0.267 -0.134,-0.4 -0.4,-0.4Zm-0,-5c-0.334,-0 -0.5,0.166 -0.5,0.5c-0,0.266 0.166,0.4 0.5,0.4c0.333,-0 0.5,-0.134 0.5,-0.4c-0,-0.334 -0.167,-0.5 -0.5,-0.5Zm-0,-5c-0.334,-0 -0.5,0.2 -0.5,0.6c-0,0.333 0.166,0.5 0.5,0.5c0.333,-0 0.5,-0.167 0.5,-0.5c-0,-0.4 -0.167,-0.6 -0.5,-0.6Zm-0,-5c-0.4,-0 -0.6,0.233 -0.6,0.7c-0,0.4 0.2,0.6 0.6,0.6c0.4,-0 0.6,-0.2 0.6,-0.6c-0,-0.467 -0.2,-0.7 -0.6,-0.7Z" style="fill:#666;fill-rule:nonzero;"/><path d="M221.167,59.278l-0.1,0.1l0.1,0.1c0.133,-0 0.2,-0.034 0.2,-0.1c-0.067,-0.067 -0.134,-0.1 -0.2,-0.1Zm-0,-5c-0.067,-0 -0.1,0.066 -0.1,0.2c-0,0.133 0.033,0.2 0.1,0.2c0.133,-0 0.2,-0.067 0.2,-0.2c-0,-0.134 -0.067,-0.2 -0.2,-0.2Zm-0,-5c-0.134,-0 -0.2,0.1 -0.2,0.3c-0,0.2 0.066,0.3 0.2,0.3c0.2,-0 0.3,-0.1 0.3,-0.3c-0,-0.2 -0.1,-0.3 -0.3,-0.3Zm-0,-4.9c-0.2,-0 -0.3,0.1 -0.3,0.3c-0,0.2 0.1,0.3 0.3,0.3c0.266,-0 0.4,-0.1 0.4,-0.3c-0,-0.2 -0.134,-0.3 -0.4,-0.3Zm-4.6,14.9l-0.1,0.1l0.1,0.1c0.066,-0 0.1,-0.034 0.1,-0.1c-0,-0.067 -0.034,-0.1 -0.1,-0.1Zm-0,-5c-0.067,-0 -0.1,0.066 -0.1,0.2c-0,0.133 0.033,0.2 0.1,0.2c0.133,-0 0.2,-0.067 0.2,-0.2c-0,-0.134 -0.067,-0.2 -0.2,-0.2Zm-0,-5c-0.134,-0 -0.2,0.1 -0.2,0.3c-0,0.2 0.066,0.3 0.2,0.3c0.2,-0 0.3,-0.1 0.3,-0.3c-0,-0.2 -0.1,-0.3 -0.3,-0.3Zm-0,-4.9c-0.2,-0 -0.3,0.1 -0.3,0.3c-0,0.2 0.1,0.3 0.3,0.3c0.266,-0 0.4,-0.1 0.4,-0.3c-0,-0.2 -0.134,-0.3 -0.4,-0.3Zm-4.6,14.9l-0.1,0.1l0.1,0.1c0.066,-0 0.1,-0.034 0.1,-0.1c-0,-0.067 -0.034,-0.1 -0.1,-0.1Zm-0,-5c-0.134,-0 -0.2,0.066 -0.2,0.2c-0,0.133 0.066,0.2 0.2,0.2c0.133,-0 0.2,-0.067 0.2,-0.2c-0,-0.134 -0.067,-0.2 -0.2,-0.2Zm-0,-5c-0.134,-0 -0.2,0.1 -0.2,0.3c-0,0.2 0.066,0.3 0.2,0.3c0.2,-0 0.3,-0.1 0.3,-0.3c-0,-0.2 -0.1,-0.3 -0.3,-0.3Zm-0,-4.9c-0.2,-0 -0.3,0.1 -0.3,0.3c-0,0.2 0.1,0.3 0.3,0.3c0.2,-0 0.3,-0.1 0.3,-0.3c-0,-0.2 -0.1,-0.3 -0.3,-0.3Zm-0,-5c-0.267,-0 -0.4,0.133 -0.4,0.4c-0,0.266 0.133,0.4 0.4,0.4c0.266,-0 0.4,-0.134 0.4,-0.4c-0,-0.267 -0.134,-0.4 -0.4,-0.4Zm-4.6,19.9l-0.1,0.1c-0,0.066 0.033,0.1 0.1,0.1c0.066,-0 0.1,-0.034 0.1,-0.1c-0,-0.067 -0.034,-0.1 -0.1,-0.1Zm-0,-5c-0.134,-0 -0.2,0.066 -0.2,0.2c-0,0.133 0.066,0.2 0.2,0.2c0.133,-0 0.2,-0.067 0.2,-0.2c-0,-0.134 -0.067,-0.2 -0.2,-0.2Zm-0,-5c-0.2,-0 -0.3,0.1 -0.3,0.3c-0,0.2 0.1,0.3 0.3,0.3c0.2,-0 0.3,-0.1 0.3,-0.3c-0,-0.2 -0.1,-0.3 -0.3,-0.3Zm-0,-4.9c-0.2,-0 -0.3,0.1 -0.3,0.3c-0,0.2 0.1,0.3 0.3,0.3c0.2,-0 0.3,-0.1 0.3,-0.3c-0,-0.2 -0.1,-0.3 -0.3,-0.3Zm-0,-5c-0.267,-0 -0.4,0.133 -0.4,0.4c-0,0.266 0.133,0.4 0.4,0.4c0.266,-0 0.4,-0.134 0.4,-0.4c-0,-0.267 -0.134,-0.4 -0.4,-0.4Zm-4.6,19.9l-0.1,0.1c-0,0.066 0.033,0.1 0.1,0.1c0.066,-0 0.1,-0.034 0.1,-0.1c-0,-0.067 -0.034,-0.1 -0.1,-0.1Zm-0,-5c-0.134,-0 -0.2,0.066 -0.2,0.2c-0,0.133 0.066,0.2 0.2,0.2c0.133,-0 0.2,-0.067 0.2,-0.2c-0,-0.134 -0.067,-0.2 -0.2,-0.2Zm-0,-5c-0.2,-0 -0.3,0.1 -0.3,0.3c-0,0.2 0.1,0.3 0.3,0.3c0.2,-0 0.3,-0.1 0.3,-0.3c-0,-0.2 -0.1,-0.3 -0.3,-0.3Zm-0,-4.9c-0.2,-0 -0.3,0.1 -0.3,0.3c-0,0.2 0.1,0.3 0.3,0.3c0.2,-0 0.3,-0.1 0.3,-0.3c-0,-0.2 -0.1,-0.3 -0.3,-0.3Zm-0,-5c-0.267,-0 -0.4,0.133 -0.4,0.4c-0,0.266 0.133,0.4 0.4,0.4c0.266,-0 0.4,-0.134 0.4,-0.4c-0,-0.267 -0.134,-0.4 -0.4,-0.4Zm-0,-5c-0.334,-0 -0.5,0.166 -0.5,0.5c-0,0.266 0.166,0.4 0.5,0.4c0.333,-0 0.5,-0.134 0.5,-0.4c-0,-0.334 -0.167,-0.5 -0.5,-0.5Zm-4.5,25l-0.1,-0.1l-0.1,0.1c-0,0.066 0.033,0.1 0.1,0.1c0.066,-0 0.1,-0.034 0.1,-0.1Zm-4.6,-0l-0.1,-0.1l-0.1,0.1c-0,0.066 0.033,0.1 0.1,0.1c0.066,-0 0.1,-0.034 0.1,-0.1Zm-4.6,-0l-0.1,-0.1l-0.2,0.1c-0,0.066 0.066,0.1 0.2,0.1c0.066,-0 0.1,-0.034 0.1,-0.1Zm-0.1,-5.1c-0.134,-0 -0.2,0.066 -0.2,0.2c-0,0.133 0.066,0.2 0.2,0.2c0.066,-0 0.1,-0.067 0.1,-0.2c-0,-0.134 -0.034,-0.2 -0.1,-0.2Zm-0,-5c-0.2,-0 -0.3,0.1 -0.3,0.3c-0,0.2 0.1,0.3 0.3,0.3c0.133,-0 0.2,-0.1 0.2,-0.3c-0,-0.2 -0.067,-0.3 -0.2,-0.3Zm-0,-4.9c-0.267,-0 -0.4,0.1 -0.4,0.3c-0,0.2 0.133,0.3 0.4,0.3c0.2,-0 0.3,-0.1 0.3,-0.3c-0,-0.2 -0.1,-0.3 -0.3,-0.3Zm-0,-5c-0.267,-0 -0.4,0.133 -0.4,0.4c-0,0.266 0.133,0.4 0.4,0.4c0.266,-0 0.4,-0.134 0.4,-0.4c-0,-0.267 -0.134,-0.4 -0.4,-0.4Zm-0,-5c-0.334,-0 -0.5,0.166 -0.5,0.5c-0,0.266 0.166,0.4 0.5,0.4c0.266,-0 0.4,-0.134 0.4,-0.4c-0,-0.334 -0.134,-0.5 -0.4,-0.5Zm-0,-5c-0.4,-0 -0.6,0.2 -0.6,0.6c-0,0.333 0.2,0.5 0.6,0.5c0.333,-0 0.5,-0.167 0.5,-0.5c-0,-0.4 -0.167,-0.6 -0.5,-0.6Zm32.4,10l-16,-8.5l9.6,-0l0.3,-1.7l-0.3,-0.4l-8.2,0.1l-5,-0l-5.3,-2.7l-0,-19.6l22.6,0.1l0.3,-1.7l-0.2,-0.4l-24.7,-0l-0,20.5l-10,-5.3c-0.267,-0.134 -0.434,-0.1 -0.5,0.1c-0.134,0.333 -0.067,0.533 0.2,0.6l36.8,19.6l0.2,0.1c0.133,-0 0.266,-0.067 0.4,-0.2c0.133,-0.267 0.066,-0.467 -0.2,-0.6Zm-26.9,-9.6l-0,25.4l2,-0l-0,-24.3l0.2,-0l-2.2,-1.1Z" style="fill:#666;fill-rule:nonzero;"/><path d="M249.267,4.178c-7.267,-0 -12.8,2.233 -16.6,6.7c-3.8,4.466 -5.7,10.866 -5.7,19.2c-0,8.2 1.85,14.5 5.55,18.9c3.7,4.4 8.983,6.6 15.85,6.6c7.2,-0 12.716,-2.284 16.55,-6.85c3.833,-4.567 5.75,-11.15 5.75,-19.75c-0,-7.934 -1.834,-14.05 -5.5,-18.35c-3.667,-4.3 -8.967,-6.45 -15.9,-6.45Zm-0.9,49.5c-6.267,-0 -11.05,-2.034 -14.35,-6.1c-3.3,-4.067 -4.95,-9.934 -4.95,-17.6c-0,-7.734 1.716,-13.617 5.15,-17.65c3.433,-4.034 8.416,-6.05 14.95,-6.05c6.333,-0 11.166,1.95 14.5,5.85c3.333,3.9 5,9.583 5,17.05c-0,7.933 -1.75,14 -5.25,18.2c-3.5,4.2 -8.517,6.3 -15.05,6.3Zm-16.3,-17.3l33.9,-12.1c-0.067,-0.134 -0.1,-0.267 -0.1,-0.4c-0,-0.134 -0.034,-0.267 -0.1,-0.4l-33.8,12c-0,0.133 0.016,0.283 0.05,0.45c0.033,0.166 0.05,0.316 0.05,0.45Zm44.8,-16.4c-0,-0.2 -0.167,-0.3 -0.5,-0.3l-3.8,1.4c-0,0.133 0.016,0.266 0.05,0.4c0.033,0.133 0.05,0.266 0.05,0.4l4,-1.4c0.266,-0 0.333,-0.167 0.2,-0.5Zm-51.7,17.9l-4.1,1.5c-0.267,0.133 -0.334,0.3 -0.2,0.5c-0,0.2 0.1,0.3 0.3,0.3l0.2,-0l4,-1.4c-0.134,-0.4 -0.2,-0.7 -0.2,-0.9Zm51.3,21.4l-0.1,0.1l0.1,0.1c0.133,-0 0.2,-0.034 0.2,-0.1c-0.067,-0.067 -0.134,-0.1 -0.2,-0.1Zm-0,-5c-0.067,-0 -0.1,0.066 -0.1,0.2c-0,0.133 0.033,0.2 0.1,0.2c0.133,-0 0.2,-0.067 0.2,-0.2c-0,-0.134 -0.067,-0.2 -0.2,-0.2Zm-0,-5c-0.134,-0 -0.2,0.1 -0.2,0.3c-0,0.2 0.066,0.3 0.2,0.3c0.2,-0 0.3,-0.1 0.3,-0.3c-0,-0.2 -0.1,-0.3 -0.3,-0.3Zm-0,-4.9c-0.2,-0 -0.3,0.1 -0.3,0.3c-0,0.2 0.1,0.3 0.3,0.3c0.266,-0 0.4,-0.1 0.4,-0.3c-0,-0.2 -0.134,-0.3 -0.4,-0.3Zm-0,-5c-0.267,-0 -0.4,0.133 -0.4,0.4c-0,0.266 0.133,0.4 0.4,0.4c0.266,-0 0.4,-0.134 0.4,-0.4c-0,-0.267 -0.134,-0.4 -0.4,-0.4Zm-0,-5c-0.267,-0 -0.4,0.166 -0.4,0.5c-0,0.266 0.133,0.4 0.4,0.4c0.333,-0 0.5,-0.134 0.5,-0.4c-0,-0.334 -0.167,-0.5 -0.5,-0.5Zm-0,-5c-0.334,-0 -0.5,0.2 -0.5,0.6c-0,0.333 0.166,0.5 0.5,0.5c0.4,-0 0.6,-0.167 0.6,-0.5c-0,-0.4 -0.2,-0.6 -0.6,-0.6Zm-0,-5c-0.4,-0 -0.6,0.233 -0.6,0.7c-0,0.4 0.2,0.6 0.6,0.6c0.466,-0 0.7,-0.2 0.7,-0.6c-0,-0.467 -0.234,-0.7 -0.7,-0.7Zm-5,34.9l-0.1,0.1l0.1,0.1c0.066,-0 0.1,-0.034 0.1,-0.1c-0,-0.067 -0.034,-0.1 -0.1,-0.1Zm-0,-5c-0.134,-0 -0.2,0.066 -0.2,0.2c-0,0.133 0.066,0.2 0.2,0.2c0.133,-0 0.2,-0.067 0.2,-0.2c-0,-0.134 -0.067,-0.2 -0.2,-0.2Zm-0,-5c-0.134,-0 -0.2,0.1 -0.2,0.3c-0,0.2 0.066,0.3 0.2,0.3c0.2,-0 0.3,-0.1 0.3,-0.3c-0,-0.2 -0.1,-0.3 -0.3,-0.3Zm-0,-4.9c-0.2,-0 -0.3,0.1 -0.3,0.3c-0,0.2 0.1,0.3 0.3,0.3c0.2,-0 0.3,-0.1 0.3,-0.3c-0,-0.2 -0.1,-0.3 -0.3,-0.3Zm-5,14.9l-0.1,0.1c-0,0.066 0.033,0.1 0.1,0.1c0.066,-0 0.1,-0.034 0.1,-0.1c-0,-0.067 -0.034,-0.1 -0.1,-0.1Zm-0,-5c-0.134,-0 -0.2,0.066 -0.2,0.2c-0,0.133 0.066,0.2 0.2,0.2c0.133,-0 0.2,-0.067 0.2,-0.2c-0,-0.134 -0.067,-0.2 -0.2,-0.2Zm-4.9,5.1l-0.1,-0.1l-0.1,0.1c-0,0.066 0.033,0.1 0.1,0.1c0.066,-0 0.1,-0.034 0.1,-0.1Zm-0.1,-15c-0.267,-0 -0.4,0.1 -0.4,0.3c-0,0.2 0.133,0.3 0.4,0.3c0.2,-0 0.3,-0.1 0.3,-0.3c-0,-0.2 -0.1,-0.3 -0.3,-0.3Zm-0,-5c-0.267,-0 -0.4,0.133 -0.4,0.4c-0,0.266 0.133,0.4 0.4,0.4c0.266,-0 0.4,-0.134 0.4,-0.4c-0,-0.267 -0.134,-0.4 -0.4,-0.4Zm-0,-5c-0.334,-0 -0.5,0.166 -0.5,0.5c-0,0.266 0.166,0.4 0.5,0.4c0.266,-0 0.4,-0.134 0.4,-0.4c-0,-0.334 -0.134,-0.5 -0.4,-0.5Zm-0,-5c-0.4,-0 -0.6,0.2 -0.6,0.6c-0,0.333 0.2,0.5 0.6,0.5c0.333,-0 0.5,-0.167 0.5,-0.5c-0,-0.4 -0.167,-0.6 -0.5,-0.6Zm-5.1,29.9l-0.1,0.1l0.1,0.1c0.066,-0 0.1,-0.034 0.1,-0.1c-0,-0.067 -0.034,-0.1 -0.1,-0.1Zm-0,-14.9c-0.2,-0 -0.3,0.1 -0.3,0.3c-0,0.2 0.1,0.3 0.3,0.3c0.266,-0 0.4,-0.1 0.4,-0.3c-0,-0.2 -0.134,-0.3 -0.4,-0.3Zm-0,-5c-0.267,-0 -0.4,0.133 -0.4,0.4c-0,0.266 0.133,0.4 0.4,0.4c0.266,-0 0.4,-0.134 0.4,-0.4c-0,-0.267 -0.134,-0.4 -0.4,-0.4Zm-0,-5c-0.267,-0 -0.4,0.166 -0.4,0.5c-0,0.266 0.133,0.4 0.4,0.4c0.333,-0 0.5,-0.134 0.5,-0.4c-0,-0.334 -0.167,-0.5 -0.5,-0.5Zm-0,-5c-0.334,-0 -0.5,0.2 -0.5,0.6c-0,0.333 0.166,0.5 0.5,0.5c0.4,-0 0.6,-0.167 0.6,-0.5c-0,-0.4 -0.2,-0.6 -0.6,-0.6Zm-5,29.9l-0.1,0.1c-0,0.066 0.033,0.1 0.1,0.1c0.066,-0 0.1,-0.034 0.1,-0.1c-0,-0.067 -0.034,-0.1 -0.1,-0.1Zm-0,-10c-0.134,-0 -0.2,0.1 -0.2,0.3c-0,0.2 0.066,0.3 0.2,0.3c0.2,-0 0.3,-0.1 0.3,-0.3c-0,-0.2 -0.1,-0.3 -0.3,-0.3Zm-0,-4.9c-0.2,-0 -0.3,0.1 -0.3,0.3c-0,0.2 0.1,0.3 0.3,0.3c0.2,-0 0.3,-0.1 0.3,-0.3c-0,-0.2 -0.1,-0.3 -0.3,-0.3Zm-0,-5c-0.267,-0 -0.4,0.133 -0.4,0.4c-0,0.266 0.133,0.4 0.4,0.4c0.266,-0 0.4,-0.134 0.4,-0.4c-0,-0.267 -0.134,-0.4 -0.4,-0.4Zm-0,-5c-0.334,-0 -0.5,0.166 -0.5,0.5c-0,0.266 0.166,0.4 0.5,0.4c0.333,-0 0.5,-0.134 0.5,-0.4c-0,-0.334 -0.167,-0.5 -0.5,-0.5Zm-4.9,25l-0.1,-0.1l-0.1,0.1c-0,0.066 0.033,0.1 0.1,0.1c0.066,-0 0.1,-0.034 0.1,-0.1Zm-0.1,-10.1c-0.2,-0 -0.3,0.1 -0.3,0.3c-0,0.2 0.1,0.3 0.3,0.3c0.133,-0 0.2,-0.1 0.2,-0.3c-0,-0.2 -0.067,-0.3 -0.2,-0.3Zm-0,-4.9c-0.2,-0 -0.3,0.1 -0.3,0.3c-0,0.2 0.1,0.3 0.3,0.3c0.2,-0 0.3,-0.1 0.3,-0.3c-0,-0.2 -0.1,-0.3 -0.3,-0.3Zm-0,-5c-0.267,-0 -0.4,0.133 -0.4,0.4c-0,0.266 0.133,0.4 0.4,0.4c0.266,-0 0.4,-0.134 0.4,-0.4c-0,-0.267 -0.134,-0.4 -0.4,-0.4Zm-0,-5c-0.334,-0 -0.5,0.166 -0.5,0.5c-0,0.266 0.166,0.4 0.5,0.4c0.333,-0 0.5,-0.134 0.5,-0.4c-0,-0.334 -0.167,-0.5 -0.5,-0.5Zm-4.9,25l-0.1,-0.1l-0.2,0.1c-0,0.066 0.066,0.1 0.2,0.1c0.066,-0 0.1,-0.034 0.1,-0.1Zm-0.1,-15c-0.267,-0 -0.4,0.1 -0.4,0.3c-0,0.2 0.133,0.3 0.4,0.3c0.2,-0 0.3,-0.1 0.3,-0.3c-0,-0.2 -0.1,-0.3 -0.3,-0.3Zm-0,-5c-0.267,-0 -0.4,0.133 -0.4,0.4c-0,0.266 0.133,0.4 0.4,0.4c0.266,-0 0.4,-0.134 0.4,-0.4c-0,-0.267 -0.134,-0.4 -0.4,-0.4Zm-0,-5c-0.334,-0 -0.5,0.166 -0.5,0.5c-0,0.266 0.166,0.4 0.5,0.4c0.266,-0 0.4,-0.134 0.4,-0.4c-0,-0.334 -0.134,-0.5 -0.4,-0.5Zm-5.1,24.9l-0.1,0.1l0.1,0.1c0.066,-0 0.1,-0.034 0.1,-0.1c-0,-0.067 -0.034,-0.1 -0.1,-0.1Zm-0,-14.9c-0.2,-0 -0.3,0.1 -0.3,0.3c-0,0.2 0.1,0.3 0.3,0.3c0.266,-0 0.4,-0.1 0.4,-0.3c-0,-0.2 -0.134,-0.3 -0.4,-0.3Zm-0,-5c-0.267,-0 -0.4,0.133 -0.4,0.4c-0,0.266 0.133,0.4 0.4,0.4c0.266,-0 0.4,-0.134 0.4,-0.4c-0,-0.267 -0.134,-0.4 -0.4,-0.4Zm-5,19.9l-0.1,0.1c-0,0.066 0.033,0.1 0.1,0.1c0.066,-0 0.1,-0.034 0.1,-0.1c-0,-0.067 -0.034,-0.1 -0.1,-0.1Zm-0,-5c-0.134,-0 -0.2,0.066 -0.2,0.2c-0,0.133 0.066,0.2 0.2,0.2c0.133,-0 0.2,-0.067 0.2,-0.2c-0,-0.134 -0.067,-0.2 -0.2,-0.2Zm-4.9,5.1l-0.1,-0.1l-0.1,0.1c-0,0.066 0.033,0.1 0.1,0.1c0.066,-0 0.1,-0.034 0.1,-0.1Zm-0.1,-5.1c-0.134,-0 -0.2,0.066 -0.2,0.2c-0,0.133 0.066,0.2 0.2,0.2c0.066,-0 0.1,-0.067 0.1,-0.2c-0,-0.134 -0.034,-0.2 -0.1,-0.2Zm-0,-5c-0.2,-0 -0.3,0.1 -0.3,0.3c-0,0.2 0.1,0.3 0.3,0.3c0.133,-0 0.2,-0.1 0.2,-0.3c-0,-0.2 -0.067,-0.3 -0.2,-0.3Zm-0,-4.9c-0.267,-0 -0.4,0.1 -0.4,0.3c-0,0.2 0.133,0.3 0.4,0.3c0.2,-0 0.3,-0.1 0.3,-0.3c-0,-0.2 -0.1,-0.3 -0.3,-0.3Z" style="fill:#666;fill-rule:nonzero;"/><path d="M312.967,59.278l-0.1,0.1l0.1,0.1c0.133,-0 0.2,-0.034 0.2,-0.1c-0.067,-0.067 -0.134,-0.1 -0.2,-0.1Zm-0,-10c-0.134,-0 -0.2,0.1 -0.2,0.3c-0,0.2 0.066,0.3 0.2,0.3c0.2,-0 0.3,-0.1 0.3,-0.3c-0,-0.2 -0.1,-0.3 -0.3,-0.3Zm-0,-4.9c-0.2,-0 -0.3,0.1 -0.3,0.3c-0,0.2 0.1,0.3 0.3,0.3c0.266,-0 0.4,-0.1 0.4,-0.3c-0,-0.2 -0.134,-0.3 -0.4,-0.3Zm-0,-5c-0.267,-0 -0.4,0.133 -0.4,0.4c-0,0.266 0.133,0.4 0.4,0.4c0.266,-0 0.4,-0.134 0.4,-0.4c-0,-0.267 -0.134,-0.4 -0.4,-0.4Zm-0,-5c-0.267,-0 -0.4,0.166 -0.4,0.5c-0,0.266 0.133,0.4 0.4,0.4c0.333,-0 0.5,-0.134 0.5,-0.4c-0,-0.334 -0.167,-0.5 -0.5,-0.5Zm-0,-5c-0.334,-0 -0.5,0.2 -0.5,0.6c-0,0.333 0.166,0.5 0.5,0.5c0.4,-0 0.6,-0.167 0.6,-0.5c-0,-0.4 -0.2,-0.6 -0.6,-0.6Zm-0,-5c-0.4,-0 -0.6,0.233 -0.6,0.7c-0,0.4 0.2,0.6 0.6,0.6c0.466,-0 0.7,-0.2 0.7,-0.6c-0,-0.467 -0.234,-0.7 -0.7,-0.7Zm-5.2,34.9l-0.1,0.1l0.1,0.1c0.066,-0 0.1,-0.034 0.1,-0.1c-0,-0.067 -0.034,-0.1 -0.1,-0.1Zm-0,-10c-0.134,-0 -0.2,0.1 -0.2,0.3c-0,0.2 0.066,0.3 0.2,0.3c0.2,-0 0.3,-0.1 0.3,-0.3c-0,-0.2 -0.1,-0.3 -0.3,-0.3Zm-0,-4.9c-0.2,-0 -0.3,0.1 -0.3,0.3c-0,0.2 0.1,0.3 0.3,0.3c0.266,-0 0.4,-0.1 0.4,-0.3c-0,-0.2 -0.134,-0.3 -0.4,-0.3Zm-0,-5c-0.267,-0 -0.4,0.133 -0.4,0.4c-0,0.266 0.133,0.4 0.4,0.4c0.266,-0 0.4,-0.134 0.4,-0.4c-0,-0.267 -0.134,-0.4 -0.4,-0.4Zm-0,-5c-0.267,-0 -0.4,0.166 -0.4,0.5c-0,0.266 0.133,0.4 0.4,0.4c0.333,-0 0.5,-0.134 0.5,-0.4c-0,-0.334 -0.167,-0.5 -0.5,-0.5Zm-0,-5c-0.334,-0 -0.5,0.2 -0.5,0.6c-0,0.333 0.166,0.5 0.5,0.5c0.4,-0 0.6,-0.167 0.6,-0.5c-0,-0.4 -0.2,-0.6 -0.6,-0.6Zm-0,-5c-0.4,-0 -0.6,0.233 -0.6,0.7c-0,0.4 0.2,0.6 0.6,0.6c0.4,-0 0.6,-0.2 0.6,-0.6c-0,-0.467 -0.2,-0.7 -0.6,-0.7Zm-5.2,34.9l-0.1,0.1l0.1,0.1c0.066,-0 0.1,-0.034 0.1,-0.1c-0,-0.067 -0.034,-0.1 -0.1,-0.1Zm-0,-10c-0.134,-0 -0.2,0.1 -0.2,0.3c-0,0.2 0.066,0.3 0.2,0.3c0.2,-0 0.3,-0.1 0.3,-0.3c-0,-0.2 -0.1,-0.3 -0.3,-0.3Zm-0,-4.9c-0.2,-0 -0.3,0.1 -0.3,0.3c-0,0.2 0.1,0.3 0.3,0.3c0.2,-0 0.3,-0.1 0.3,-0.3c-0,-0.2 -0.1,-0.3 -0.3,-0.3Zm-0,-5c-0.267,-0 -0.4,0.133 -0.4,0.4c-0,0.266 0.133,0.4 0.4,0.4c0.266,-0 0.4,-0.134 0.4,-0.4c-0,-0.267 -0.134,-0.4 -0.4,-0.4Zm-0,-5c-0.334,-0 -0.5,0.166 -0.5,0.5c-0,0.266 0.166,0.4 0.5,0.4c0.333,-0 0.5,-0.134 0.5,-0.4c-0,-0.334 -0.167,-0.5 -0.5,-0.5Zm-0,-5c-0.334,-0 -0.5,0.2 -0.5,0.6c-0,0.333 0.166,0.5 0.5,0.5c0.4,-0 0.6,-0.167 0.6,-0.5c-0,-0.4 -0.2,-0.6 -0.6,-0.6Zm-0,-5c-0.4,-0 -0.6,0.233 -0.6,0.7c-0,0.4 0.2,0.6 0.6,0.6c0.4,-0 0.6,-0.2 0.6,-0.6c-0,-0.467 -0.2,-0.7 -0.6,-0.7Zm-5.2,34.9l-0.1,0.1c-0,0.066 0.033,0.1 0.1,0.1c0.066,-0 0.1,-0.034 0.1,-0.1c-0,-0.067 -0.034,-0.1 -0.1,-0.1Zm-0,-10c-0.2,-0 -0.3,0.1 -0.3,0.3c-0,0.2 0.1,0.3 0.3,0.3c0.2,-0 0.3,-0.1 0.3,-0.3c-0,-0.2 -0.1,-0.3 -0.3,-0.3Zm-0,-4.9c-0.2,-0 -0.3,0.1 -0.3,0.3c-0,0.2 0.1,0.3 0.3,0.3c0.2,-0 0.3,-0.1 0.3,-0.3c-0,-0.2 -0.1,-0.3 -0.3,-0.3Zm-0,-5c-0.267,-0 -0.4,0.133 -0.4,0.4c-0,0.266 0.133,0.4 0.4,0.4c0.266,-0 0.4,-0.134 0.4,-0.4c-0,-0.267 -0.134,-0.4 -0.4,-0.4Zm-0,-5c-0.334,-0 -0.5,0.166 -0.5,0.5c-0,0.266 0.166,0.4 0.5,0.4c0.333,-0 0.5,-0.134 0.5,-0.4c-0,-0.334 -0.167,-0.5 -0.5,-0.5Zm-0,-5c-0.334,-0 -0.5,0.2 -0.5,0.6c-0,0.333 0.166,0.5 0.5,0.5c0.333,-0 0.5,-0.167 0.5,-0.5c-0,-0.4 -0.167,-0.6 -0.5,-0.6Zm-0,-5c-0.4,-0 -0.6,0.233 -0.6,0.7c-0,0.4 0.2,0.6 0.6,0.6c0.4,-0 0.6,-0.2 0.6,-0.6c-0,-0.467 -0.2,-0.7 -0.6,-0.7Zm-5.1,35l-0.1,-0.1l-0.1,0.1c-0,0.066 0.033,0.1 0.1,0.1c0.066,-0 0.1,-0.034 0.1,-0.1Zm-0.1,-10.1c-0.2,-0 -0.3,0.1 -0.3,0.3c-0,0.2 0.1,0.3 0.3,0.3c0.133,-0 0.2,-0.1 0.2,-0.3c-0,-0.2 -0.067,-0.3 -0.2,-0.3Zm-0,-4.9c-0.2,-0 -0.3,0.1 -0.3,0.3c-0,0.2 0.1,0.3 0.3,0.3c0.2,-0 0.3,-0.1 0.3,-0.3c-0,-0.2 -0.1,-0.3 -0.3,-0.3Zm-0,-5c-0.267,-0 -0.4,0.133 -0.4,0.4c-0,0.266 0.133,0.4 0.4,0.4c0.266,-0 0.4,-0.134 0.4,-0.4c-0,-0.267 -0.134,-0.4 -0.4,-0.4Zm-0,-5c-0.334,-0 -0.5,0.166 -0.5,0.5c-0,0.266 0.166,0.4 0.5,0.4c0.333,-0 0.5,-0.134 0.5,-0.4c-0,-0.334 -0.167,-0.5 -0.5,-0.5Zm-0,-5c-0.334,-0 -0.5,0.2 -0.5,0.6c-0,0.333 0.166,0.5 0.5,0.5c0.333,-0 0.5,-0.167 0.5,-0.5c-0,-0.4 -0.167,-0.6 -0.5,-0.6Zm-0,-5c-0.4,-0 -0.6,0.233 -0.6,0.7c-0,0.4 0.2,0.6 0.6,0.6c0.4,-0 0.6,-0.2 0.6,-0.6c-0,-0.467 -0.2,-0.7 -0.6,-0.7Zm-5.1,35l-0.1,-0.1l-0.1,0.1c-0,0.066 0.033,0.1 0.1,0.1c0.066,-0 0.1,-0.034 0.1,-0.1Zm-5.2,-0l-0.1,-0.1l-0.2,0.1c-0,0.066 0.066,0.1 0.2,0.1c0.066,-0 0.1,-0.034 0.1,-0.1Zm-0.1,-5.1c-0.134,-0 -0.2,0.066 -0.2,0.2c-0,0.133 0.066,0.2 0.2,0.2c0.066,-0 0.1,-0.067 0.1,-0.2c-0,-0.134 -0.034,-0.2 -0.1,-0.2Zm-0,-5c-0.2,-0 -0.3,0.1 -0.3,0.3c-0,0.2 0.1,0.3 0.3,0.3c0.133,-0 0.2,-0.1 0.2,-0.3c-0,-0.2 -0.067,-0.3 -0.2,-0.3Zm-0,-4.9c-0.267,-0 -0.4,0.1 -0.4,0.3c-0,0.2 0.133,0.3 0.4,0.3c0.2,-0 0.3,-0.1 0.3,-0.3c-0,-0.2 -0.1,-0.3 -0.3,-0.3Zm-0,-5c-0.267,-0 -0.4,0.133 -0.4,0.4c-0,0.266 0.133,0.4 0.4,0.4c0.266,-0 0.4,-0.134 0.4,-0.4c-0,-0.267 -0.134,-0.4 -0.4,-0.4Zm-0,-5c-0.334,-0 -0.5,0.166 -0.5,0.5c-0,0.266 0.166,0.4 0.5,0.4c0.266,-0 0.4,-0.134 0.4,-0.4c-0,-0.334 -0.134,-0.5 -0.4,-0.5Zm-0,-5c-0.4,-0 -0.6,0.2 -0.6,0.6c-0,0.333 0.2,0.5 0.6,0.5c0.333,-0 0.5,-0.167 0.5,-0.5c-0,-0.4 -0.167,-0.6 -0.5,-0.6Zm-0,-5c-0.467,-0 -0.7,0.233 -0.7,0.7c-0,0.4 0.233,0.6 0.7,0.6c0.4,-0 0.6,-0.2 0.6,-0.6c-0,-0.467 -0.2,-0.7 -0.6,-0.7Zm31.2,-4.7l-23.8,-0l-0,-15.1l-2,-0l-0,15.1l-10.7,-0c-0.267,-0 -0.4,0.133 -0.4,0.4c-0,0.266 0.133,0.4 0.4,0.4l36.5,-0c0.266,-0 0.4,-0.134 0.4,-0.4c-0,-0.267 -0.134,-0.4 -0.4,-0.4Zm-3,33.5l-20.8,-0l-0,-29.6l-2,-0l-0,31.6l22.7,-0l0.3,-1.6l-0.2,-0.4Z" style="fill:#666;fill-rule:nonzero;"/><path d="M336.667,59.278l-0.1,0.1l0.1,0.1c0.133,-0 0.2,-0.034 0.2,-0.1c-0.067,-0.067 -0.134,-0.1 -0.2,-0.1Zm-0,-5c-0.067,-0 -0.1,0.066 -0.1,0.2c-0,0.133 0.033,0.2 0.1,0.2c0.133,-0 0.2,-0.067 0.2,-0.2c-0,-0.134 -0.067,-0.2 -0.2,-0.2Zm-0,-5c-0.134,-0 -0.2,0.1 -0.2,0.3c-0,0.2 0.066,0.3 0.2,0.3c0.2,-0 0.3,-0.1 0.3,-0.3c-0,-0.2 -0.1,-0.3 -0.3,-0.3Zm-0,-4.9c-0.2,-0 -0.3,0.1 -0.3,0.3c-0,0.2 0.1,0.3 0.3,0.3c0.266,-0 0.4,-0.1 0.4,-0.3c-0,-0.2 -0.134,-0.3 -0.4,-0.3Zm-4.7,14.9l-0.1,0.1c-0,0.066 0.033,0.1 0.1,0.1c0.066,-0 0.1,-0.034 0.1,-0.1c-0,-0.067 -0.034,-0.1 -0.1,-0.1Zm-0,-5c-0.134,-0 -0.2,0.066 -0.2,0.2c-0,0.133 0.066,0.2 0.2,0.2c0.133,-0 0.2,-0.067 0.2,-0.2c-0,-0.134 -0.067,-0.2 -0.2,-0.2Zm-0,-5c-0.2,-0 -0.3,0.1 -0.3,0.3c-0,0.2 0.1,0.3 0.3,0.3c0.2,-0 0.3,-0.1 0.3,-0.3c-0,-0.2 -0.1,-0.3 -0.3,-0.3Zm-0,-4.9c-0.2,-0 -0.3,0.1 -0.3,0.3c-0,0.2 0.1,0.3 0.3,0.3c0.2,-0 0.3,-0.1 0.3,-0.3c-0,-0.2 -0.1,-0.3 -0.3,-0.3Zm-0,-5c-0.267,-0 -0.4,0.133 -0.4,0.4c-0,0.266 0.133,0.4 0.4,0.4c0.266,-0 0.4,-0.134 0.4,-0.4c-0,-0.267 -0.134,-0.4 -0.4,-0.4Zm-4.6,20l-0.1,-0.1l-0.1,0.1c-0,0.066 0.033,0.1 0.1,0.1c0.066,-0 0.1,-0.034 0.1,-0.1Zm-4.9,-0.1l-0.1,0.1l0.1,0.1c0.066,-0 0.1,-0.034 0.1,-0.1c-0,-0.067 -0.034,-0.1 -0.1,-0.1Zm-4.6,0.1l-0.1,-0.1l-0.1,0.1c-0,0.066 0.033,0.1 0.1,0.1c0.066,-0 0.1,-0.034 0.1,-0.1Zm-0.1,-5.1c-0.134,-0 -0.2,0.066 -0.2,0.2c-0,0.133 0.066,0.2 0.2,0.2c0.133,-0 0.2,-0.067 0.2,-0.2c-0,-0.134 -0.067,-0.2 -0.2,-0.2Zm-0,-5c-0.2,-0 -0.3,0.1 -0.3,0.3c-0,0.2 0.1,0.3 0.3,0.3c0.133,-0 0.2,-0.1 0.2,-0.3c-0,-0.2 -0.067,-0.3 -0.2,-0.3Zm-0,-4.9c-0.2,-0 -0.3,0.1 -0.3,0.3c-0,0.2 0.1,0.3 0.3,0.3c0.2,-0 0.3,-0.1 0.3,-0.3c-0,-0.2 -0.1,-0.3 -0.3,-0.3Zm-0,-5c-0.267,-0 -0.4,0.133 -0.4,0.4c-0,0.266 0.133,0.4 0.4,0.4c0.266,-0 0.4,-0.134 0.4,-0.4c-0,-0.267 -0.134,-0.4 -0.4,-0.4Zm-0,-5c-0.334,-0 -0.5,0.166 -0.5,0.5c-0,0.266 0.166,0.4 0.5,0.4c0.333,-0 0.5,-0.134 0.5,-0.4c-0,-0.334 -0.167,-0.5 -0.5,-0.5Zm-0,-5c-0.4,-0 -0.6,0.2 -0.6,0.6c-0,0.333 0.2,0.5 0.6,0.5c0.333,-0 0.5,-0.167 0.5,-0.5c-0,-0.4 -0.167,-0.6 -0.5,-0.6Zm6,25.8l2,-0l-0,-50.6l-2,-0l-0,50.6Zm-2.5,-27.6l-0,-1.1l-8,-6.7c-0.2,-0.134 -0.4,-0.1 -0.6,0.1c-0.2,0.2 -0.167,0.4 0.1,0.6l8.5,7.1Zm15.7,11.9l-8.7,-7.2l-0,1.1l8.2,6.7l0.2,0.1c0.133,-0 0.266,-0.067 0.4,-0.2c0.2,-0.2 0.166,-0.367 -0.1,-0.5Z" style="fill:#666;fill-rule:nonzero;"/><path d="M392.167,58.978l-17,-6c7.333,-4 11,-12 11,-24c-0,-7.934 -1.834,-14.05 -5.5,-18.35c-3.667,-4.3 -8.967,-6.45 -15.9,-6.45c-7.267,-0 -12.8,2.233 -16.6,6.7c-3.8,4.466 -5.7,10.866 -5.7,19.2c-0,4.533 0.6,8.5 1.8,11.9l-7.4,-2.6c-0.334,-0.134 -0.5,-0.067 -0.5,0.2c-0.067,0.266 -0,0.466 0.2,0.6l55.3,19.6l0.1,-0c0.266,-0 0.4,-0.067 0.4,-0.2c0.066,-0.267 -0,-0.467 -0.2,-0.6Zm-47.6,-29c-0,-7.734 1.716,-13.617 5.15,-17.65c3.433,-4.034 8.416,-6.05 14.95,-6.05c6.333,-0 11.166,1.95 14.5,5.85c3.333,3.9 5,9.583 5,17.05c-0,6 -0.984,10.916 -2.95,14.75c-1.967,3.833 -4.85,6.55 -8.65,8.15l-25.7,-9.2c-1.534,-3.6 -2.3,-7.9 -2.3,-12.9Zm42.4,29.3l-0.1,0.1l0.1,0.1c0.066,-0 0.1,-0.034 0.1,-0.1c-0,-0.067 -0.034,-0.1 -0.1,-0.1Zm-5,-0l-0.1,0.1c-0,0.066 0.033,0.1 0.1,0.1c0.066,-0 0.1,-0.034 0.1,-0.1c-0,-0.067 -0.034,-0.1 -0.1,-0.1Zm-4.9,0.1l-0.1,-0.1l-0.1,0.1c-0,0.066 0.033,0.1 0.1,0.1c0.066,-0 0.1,-0.034 0.1,-0.1Zm-5.2,-0.1l-0.1,0.1l0.1,0.1c0.066,-0 0.1,-0.034 0.1,-0.1c-0,-0.067 -0.034,-0.1 -0.1,-0.1Zm-5,-0l-0.1,0.1c-0,0.066 0.033,0.1 0.1,0.1c0.066,-0 0.1,-0.034 0.1,-0.1c-0,-0.067 -0.034,-0.1 -0.1,-0.1Zm-0,-5c-0.134,-0 -0.2,0.066 -0.2,0.2c-0,0.133 0.066,0.2 0.2,0.2c0.133,-0 0.2,-0.067 0.2,-0.2c-0,-0.134 -0.067,-0.2 -0.2,-0.2Zm-4.9,5.1l-0.1,-0.1l-0.1,0.1c-0,0.066 0.033,0.1 0.1,0.1c0.066,-0 0.1,-0.034 0.1,-0.1Zm-0.1,-5.1c-0.134,-0 -0.2,0.066 -0.2,0.2c-0,0.133 0.066,0.2 0.2,0.2c0.133,-0 0.2,-0.067 0.2,-0.2c-0,-0.134 -0.067,-0.2 -0.2,-0.2Zm-4.9,5.1l-0.1,-0.1l-0.2,0.1c-0,0.066 0.066,0.1 0.2,0.1c0.066,-0 0.1,-0.034 0.1,-0.1Zm-0.1,-5.1c-0.134,-0 -0.2,0.066 -0.2,0.2c-0,0.133 0.066,0.2 0.2,0.2c0.066,-0 0.1,-0.067 0.1,-0.2c-0,-0.134 -0.034,-0.2 -0.1,-0.2Zm-5.1,5l-0.1,0.1l0.1,0.1c0.066,-0 0.1,-0.034 0.1,-0.1c-0,-0.067 -0.034,-0.1 -0.1,-0.1Zm-0,-5c-0.134,-0 -0.2,0.066 -0.2,0.2c-0,0.133 0.066,0.2 0.2,0.2c0.133,-0 0.2,-0.067 0.2,-0.2c-0,-0.134 -0.067,-0.2 -0.2,-0.2Zm-0,-5c-0.134,-0 -0.2,0.1 -0.2,0.3c-0,0.2 0.066,0.3 0.2,0.3c0.2,-0 0.3,-0.1 0.3,-0.3c-0,-0.2 -0.1,-0.3 -0.3,-0.3Zm-5,10l-0.1,0.1c-0,0.066 0.033,0.1 0.1,0.1c0.066,-0 0.1,-0.034 0.1,-0.1c-0,-0.067 -0.034,-0.1 -0.1,-0.1Zm-0,-5c-0.134,-0 -0.2,0.066 -0.2,0.2c-0,0.133 0.066,0.2 0.2,0.2c0.133,-0 0.2,-0.067 0.2,-0.2c-0,-0.134 -0.067,-0.2 -0.2,-0.2Zm-0,-5c-0.2,-0 -0.3,0.1 -0.3,0.3c-0,0.2 0.1,0.3 0.3,0.3c0.2,-0 0.3,-0.1 0.3,-0.3c-0,-0.2 -0.1,-0.3 -0.3,-0.3Zm-4.9,10.1l-0.1,-0.1l-0.1,0.1c-0,0.066 0.033,0.1 0.1,0.1c0.066,-0 0.1,-0.034 0.1,-0.1Zm-0.1,-5.1c-0.134,-0 -0.2,0.066 -0.2,0.2c-0,0.133 0.066,0.2 0.2,0.2c0.066,-0 0.1,-0.067 0.1,-0.2c-0,-0.134 -0.034,-0.2 -0.1,-0.2Zm-0,-5c-0.2,-0 -0.3,0.1 -0.3,0.3c-0,0.2 0.1,0.3 0.3,0.3c0.133,-0 0.2,-0.1 0.2,-0.3c-0,-0.2 -0.067,-0.3 -0.2,-0.3Zm-0,-4.9c-0.267,-0 -0.4,0.1 -0.4,0.3c-0,0.2 0.133,0.3 0.4,0.3c0.2,-0 0.3,-0.1 0.3,-0.3c-0,-0.2 -0.1,-0.3 -0.3,-0.3Z" style="fill:#666;fill-rule:nonzero;"/></svg>